<svg width="50" height="50" viewBox="0 0 50 50" fill="none" xmlns="http://www.w3.org/2000/svg">
<g clip-path="url(#clip0)">
<path fill-rule="evenodd" clip-rule="evenodd" d="M21.3219 24.4468L13.8344 16.9593C13.7251 16.8497 13.5858 16.7751 13.434 16.7448C13.2823 16.7146 13.125 16.73 12.9821 16.7893C12.8392 16.8485 12.717 16.9489 12.6312 17.0776C12.5454 17.2063 12.4997 17.3577 12.5 17.5124V32.4874C12.5 33.1843 13.3438 33.5343 13.8344 33.0405L21.3219 25.553C21.3946 25.4804 21.4524 25.3942 21.4917 25.2993C21.5311 25.2044 21.5514 25.1026 21.5514 24.9999C21.5514 24.8971 21.5311 24.7954 21.4917 24.7005C21.4524 24.6055 21.3946 24.5193 21.3219 24.4468V24.4468Z" fill="#2A7DE1"/>
<path fill-rule="evenodd" clip-rule="evenodd" d="M5.46875 0C4.01835 0 2.62735 0.57617 1.60176 1.60176C0.57617 2.62735 0 4.01835 0 5.46875L0 44.5312C0 47.55 2.45 50 5.46875 50H44.5312C45.9817 50 47.3727 49.4238 48.3982 48.3982C49.4238 47.3727 50 45.9817 50 44.5312V5.46875C50 4.01835 49.4238 2.62735 48.3982 1.60176C47.3727 0.57617 45.9817 0 44.5312 0H5.46875ZM4.6875 5.46875C4.6875 5.26155 4.76981 5.06284 4.91632 4.91632C5.06284 4.76981 5.26155 4.6875 5.46875 4.6875H29.6875V45.3125H5.46875C5.26155 45.3125 5.06284 45.2302 4.91632 45.0837C4.76981 44.9372 4.6875 44.7385 4.6875 44.5312V5.46875ZM34.375 45.3125V4.6875H44.5312C44.7385 4.6875 44.9372 4.76981 45.0837 4.91632C45.2302 5.06284 45.3125 5.26155 45.3125 5.46875V44.5312C45.3125 44.7385 45.2302 44.9372 45.0837 45.0837C44.9372 45.2302 44.7385 45.3125 44.5312 45.3125H34.375Z" fill="#2A7DE1"/>
</g>
<defs>
<clipPath id="clip0">
<rect width="50" height="50" fill="white"/>
</clipPath>
</defs>
</svg>
