<svg width="50" height="50" viewBox="0 0 50 50" fill="none" xmlns="http://www.w3.org/2000/svg">
<path fill-rule="evenodd" clip-rule="evenodd" d="M13.053 24.4468L20.5405 16.9593C20.6498 16.8497 20.7891 16.7751 20.9408 16.7448C21.0926 16.7146 21.2499 16.73 21.3928 16.7893C21.5357 16.8485 21.6578 16.9489 21.7437 17.0776C21.8295 17.2063 21.8752 17.3577 21.8749 17.5124V32.4874C21.8752 32.6421 21.8295 32.7934 21.7437 32.9222C21.6578 33.0509 21.5357 33.1512 21.3928 33.2105C21.2499 33.2697 21.0926 33.2852 20.9408 33.2549C20.7891 33.2247 20.6498 33.15 20.5405 33.0405L13.053 25.553C12.9803 25.4804 12.9225 25.3942 12.8831 25.2993C12.8438 25.2044 12.8235 25.1026 12.8235 24.9999C12.8235 24.8971 12.8438 24.7954 12.8831 24.7005C12.9225 24.6055 12.9803 24.5193 13.053 24.4468V24.4468Z" fill="#2A7DE1"/>
<path fill-rule="evenodd" clip-rule="evenodd" d="M0 5.46875C0 2.45 2.45 0 5.46875 0H44.5312C47.55 0 50 2.45 50 5.46875V44.5312C50 45.9817 49.4238 47.3727 48.3982 48.3982C47.3727 49.4238 45.9817 50 44.5312 50H5.46875C4.01835 50 2.62735 49.4238 1.60176 48.3982C0.57617 47.3727 0 45.9817 0 44.5312L0 5.46875ZM5.46875 4.6875C5.26155 4.6875 5.06284 4.76981 4.91632 4.91632C4.76981 5.06284 4.6875 5.26155 4.6875 5.46875V44.5312C4.6875 44.9625 5.0375 45.3125 5.46875 45.3125H29.6875V4.6875H5.46875ZM44.5312 45.3125H34.375V4.6875H44.5312C44.7385 4.6875 44.9372 4.76981 45.0837 4.91632C45.2302 5.06284 45.3125 5.26155 45.3125 5.46875V44.5312C45.3125 44.7385 45.2302 44.9372 45.0837 45.0837C44.9372 45.2302 44.7385 45.3125 44.5312 45.3125Z" fill="#2A7DE1"/>
</svg>
