<svg width="30" height="30" viewBox="0 0 30 30" fill="none" xmlns="http://www.w3.org/2000/svg">
<path d="M10 19.6875C10 19.4389 10.1054 19.2004 10.2929 19.0246C10.4804 18.8488 10.7348 18.75 11 18.75H15C15.2652 18.75 15.5196 18.8488 15.7071 19.0246C15.8946 19.2004 16 19.4389 16 19.6875C16 19.9361 15.8946 20.1746 15.7071 20.3504C15.5196 20.5262 15.2652 20.625 15 20.625H11C10.7348 20.625 10.4804 20.5262 10.2929 20.3504C10.1054 20.1746 10 19.9361 10 19.6875ZM10 15.9375C10 15.6889 10.1054 15.4504 10.2929 15.2746C10.4804 15.0988 10.7348 15 11 15H21C21.2652 15 21.5196 15.0988 21.7071 15.2746C21.8946 15.4504 22 15.6889 22 15.9375C22 16.1861 21.8946 16.4246 21.7071 16.6004C21.5196 16.7762 21.2652 16.875 21 16.875H11C10.7348 16.875 10.4804 16.7762 10.2929 16.6004C10.1054 16.4246 10 16.1861 10 15.9375ZM10 12.1875C10 11.9389 10.1054 11.7004 10.2929 11.5246C10.4804 11.3488 10.7348 11.25 11 11.25H21C21.2652 11.25 21.5196 11.3488 21.7071 11.5246C21.8946 11.7004 22 11.9389 22 12.1875C22 12.4361 21.8946 12.6746 21.7071 12.8504C21.5196 13.0262 21.2652 13.125 21 13.125H11C10.7348 13.125 10.4804 13.0262 10.2929 12.8504C10.1054 12.6746 10 12.4361 10 12.1875ZM10 8.4375C10 8.18886 10.1054 7.9504 10.2929 7.77459C10.4804 7.59877 10.7348 7.5 11 7.5H21C21.2652 7.5 21.5196 7.59877 21.7071 7.77459C21.8946 7.9504 22 8.18886 22 8.4375C22 8.68614 21.8946 8.9246 21.7071 9.10041C21.5196 9.27623 21.2652 9.375 21 9.375H11C10.7348 9.375 10.4804 9.27623 10.2929 9.10041C10.1054 8.9246 10 8.68614 10 8.4375Z" fill="#3B4BEE"/>
<path d="M6 0H26C27.0609 0 28.0783 0.395088 28.8284 1.09835C29.5786 1.80161 30 2.75544 30 3.75V26.25C30 27.2446 29.5786 28.1984 28.8284 28.9016C28.0783 29.6049 27.0609 30 26 30H6C4.93913 30 3.92172 29.6049 3.17157 28.9016C2.42143 28.1984 2 27.2446 2 26.25V24.375H4V26.25C4 26.7473 4.21071 27.2242 4.58579 27.5758C4.96086 27.9275 5.46957 28.125 6 28.125H26C26.5304 28.125 27.0391 27.9275 27.4142 27.5758C27.7893 27.2242 28 26.7473 28 26.25V3.75C28 3.25272 27.7893 2.77581 27.4142 2.42417C27.0391 2.07254 26.5304 1.875 26 1.875H6C5.46957 1.875 4.96086 2.07254 4.58579 2.42417C4.21071 2.77581 4 3.25272 4 3.75V5.625H2V3.75C2 2.75544 2.42143 1.80161 3.17157 1.09835C3.92172 0.395088 4.93913 0 6 0V0Z" fill="#3B4BEE"/>
<path d="M2 9.375V8.4375C2 8.18886 2.10536 7.9504 2.29289 7.77459C2.48043 7.59877 2.73478 7.5 3 7.5C3.26522 7.5 3.51957 7.59877 3.70711 7.77459C3.89464 7.9504 4 8.18886 4 8.4375V9.375H5C5.26522 9.375 5.51957 9.47377 5.70711 9.64959C5.89464 9.8254 6 10.0639 6 10.3125C6 10.5611 5.89464 10.7996 5.70711 10.9754C5.51957 11.1512 5.26522 11.25 5 11.25H1C0.734784 11.25 0.48043 11.1512 0.292893 10.9754C0.105357 10.7996 0 10.5611 0 10.3125C0 10.0639 0.105357 9.8254 0.292893 9.64959C0.48043 9.47377 0.734784 9.375 1 9.375H2ZM2 15V14.0625C2 13.8139 2.10536 13.5754 2.29289 13.3996C2.48043 13.2238 2.73478 13.125 3 13.125C3.26522 13.125 3.51957 13.2238 3.70711 13.3996C3.89464 13.5754 4 13.8139 4 14.0625V15H5C5.26522 15 5.51957 15.0988 5.70711 15.2746C5.89464 15.4504 6 15.6889 6 15.9375C6 16.1861 5.89464 16.4246 5.70711 16.6004C5.51957 16.7762 5.26522 16.875 5 16.875H1C0.734784 16.875 0.48043 16.7762 0.292893 16.6004C0.105357 16.4246 0 16.1861 0 15.9375C0 15.6889 0.105357 15.4504 0.292893 15.2746C0.48043 15.0988 0.734784 15 1 15H2ZM2 20.625V19.6875C2 19.4389 2.10536 19.2004 2.29289 19.0246C2.48043 18.8488 2.73478 18.75 3 18.75C3.26522 18.75 3.51957 18.8488 3.70711 19.0246C3.89464 19.2004 4 19.4389 4 19.6875V20.625H5C5.26522 20.625 5.51957 20.7238 5.70711 20.8996C5.89464 21.0754 6 21.3139 6 21.5625C6 21.8111 5.89464 22.0496 5.70711 22.2254C5.51957 22.4012 5.26522 22.5 5 22.5H1C0.734784 22.5 0.48043 22.4012 0.292893 22.2254C0.105357 22.0496 0 21.8111 0 21.5625C0 21.3139 0.105357 21.0754 0.292893 20.8996C0.48043 20.7238 0.734784 20.625 1 20.625H2Z" fill="#3B4BEE"/>
</svg>
