<svg width="40" height="40" viewBox="0 0 40 40" fill="none" xmlns="http://www.w3.org/2000/svg">
<path d="M22.5 2.5C22.5 1.83696 22.2366 1.20107 21.7678 0.732233C21.2989 0.263392 20.663 0 20 0C19.337 0 18.7011 0.263392 18.2322 0.732233C17.7634 1.20107 17.5 1.83696 17.5 2.5V5C17.5 5.66304 17.7634 6.29893 18.2322 6.76777C18.7011 7.23661 19.337 7.5 20 7.5C20.663 7.5 21.2989 7.23661 21.7678 6.76777C22.2366 6.29893 22.5 5.66304 22.5 5V2.5Z" fill="#F8F02B"/>
<path d="M34.1425 9.39254C34.5979 8.92104 34.8498 8.28953 34.8441 7.63404C34.8385 6.97855 34.5755 6.35151 34.112 5.88799C33.6485 5.42447 33.0215 5.16155 32.366 5.15586C31.7105 5.15016 31.079 5.40215 30.6075 5.85754L28.84 7.62504C28.3846 8.09655 28.1326 8.72805 28.1383 9.38354C28.144 10.039 28.4069 10.6661 28.8704 11.1296C29.3339 11.5931 29.961 11.856 30.6165 11.8617C31.272 11.8674 31.9035 11.6154 32.375 11.16L34.1425 9.39254Z" fill="#F8F02B"/>
<path d="M40 20C40 20.663 39.7366 21.2989 39.2678 21.7678C38.7989 22.2366 38.163 22.5 37.5 22.5H35C34.337 22.5 33.7011 22.2366 33.2322 21.7678C32.7634 21.2989 32.5 20.663 32.5 20C32.5 19.337 32.7634 18.7011 33.2322 18.2322C33.7011 17.7634 34.337 17.5 35 17.5H37.5C38.163 17.5 38.7989 17.7634 39.2678 18.2322C39.7366 18.7011 40 19.337 40 20Z" fill="#F8F02B"/>
<path d="M7.62492 11.16C7.85554 11.3988 8.1314 11.5893 8.43641 11.7203C8.74142 11.8513 9.06947 11.9203 9.40142 11.9232C9.73336 11.9261 10.0626 11.8628 10.3698 11.7371C10.677 11.6114 10.9562 11.4258 11.1909 11.191C11.4256 10.9563 11.6113 10.6772 11.737 10.3699C11.8627 10.0627 11.9259 9.73349 11.923 9.40154C11.9202 9.06959 11.8512 8.74154 11.7202 8.43653C11.5892 8.13152 11.3987 7.85566 11.1599 7.62504L9.39242 5.85754C8.92091 5.40215 8.28941 5.15016 7.63392 5.15586C6.97842 5.16155 6.35139 5.42447 5.88787 5.88799C5.42435 6.35151 5.16143 6.97855 5.15573 7.63404C5.15004 8.28953 5.40202 8.92104 5.85742 9.39254L7.62492 11.16V11.16Z" fill="#F8F02B"/>
<path d="M7.5 20C7.5 20.663 7.23661 21.2989 6.76777 21.7678C6.29893 22.2366 5.66304 22.5 5 22.5H2.5C1.83696 22.5 1.20107 22.2366 0.732233 21.7678C0.263392 21.2989 0 20.663 0 20C0 19.337 0.263392 18.7011 0.732233 18.2322C1.20107 17.7634 1.83696 17.5 2.5 17.5H5C5.66304 17.5 6.29893 17.7634 6.76777 18.2322C7.23661 18.7011 7.5 19.337 7.5 20Z" fill="#F8F02B"/>
<path d="M15 35V32.5H25V35C25 36.3261 24.4732 37.5979 23.5355 38.5355C22.5979 39.4732 21.3261 40 20 40C18.6739 40 17.4021 39.4732 16.4645 38.5355C15.5268 37.5979 15 36.3261 15 35V35Z" fill="#F8F02B"/>
<path d="M25 29.9999C25.0375 29.1499 25.52 28.3849 26.1925 27.8524C27.8242 26.5656 29.0145 24.8023 29.5979 22.8078C30.1812 20.8133 30.1288 18.6866 29.4477 16.7232C28.7667 14.7599 27.4909 13.0575 25.7977 11.8527C24.1046 10.6479 22.0781 10.0005 20 10.0005C17.9219 10.0005 15.8954 10.6479 14.2023 11.8527C12.5091 13.0575 11.2333 14.7599 10.5523 16.7232C9.87123 18.6866 9.81875 20.8133 10.4021 22.8078C10.9855 24.8023 12.1758 26.5656 13.8075 27.8524C14.4825 28.3849 14.9625 29.1499 14.9975 29.9999H25.0025H25Z" fill="#F8F02B"/>
</svg>
