<svg width="18" height="12" viewBox="0 0 18 12" fill="none" xmlns="http://www.w3.org/2000/svg">
<path fill-rule="evenodd" clip-rule="evenodd" d="M0 6C0 5.82321 0.067725 5.65367 0.188276 5.52866C0.308828 5.40366 0.472331 5.33343 0.642816 5.33343H15.8043L11.7584 1.13935C11.6377 1.01418 11.5699 0.844425 11.5699 0.667415C11.5699 0.490406 11.6377 0.320646 11.7584 0.195481C11.8791 0.0703166 12.0428 4.17049e-09 12.2135 0C12.3842 -4.17049e-09 12.5479 0.0703166 12.6686 0.195481L17.8111 5.52807C17.871 5.58998 17.9185 5.66354 17.9509 5.74452C17.9833 5.82551 18 5.91232 18 6C18 6.08768 17.9833 6.17449 17.9509 6.25548C17.9185 6.33646 17.871 6.41002 17.8111 6.47193L12.6686 11.8045C12.5479 11.9297 12.3842 12 12.2135 12C12.0428 12 11.8791 11.9297 11.7584 11.8045C11.6377 11.6794 11.5699 11.5096 11.5699 11.3326C11.5699 11.1556 11.6377 10.9858 11.7584 10.8607L15.8043 6.66657H0.642816C0.472331 6.66657 0.308828 6.59635 0.188276 6.47134C0.067725 6.34633 0 6.17679 0 6Z" fill="#2A7DE1"/>
</svg>
