<svg width="30" height="30" viewBox="0 0 30 30" fill="none" xmlns="http://www.w3.org/2000/svg">
<path d="M16.2477 11.625C16.2477 11.3266 16.3465 11.0405 16.5223 10.8295C16.6982 10.6185 16.9367 10.5 17.1854 10.5H24.0615C24.3102 10.5 24.5487 10.6185 24.7245 10.8295C24.9004 11.0405 24.9992 11.3266 24.9992 11.625C24.9992 11.9234 24.9004 12.2095 24.7245 12.4205C24.5487 12.6315 24.3102 12.75 24.0615 12.75H17.1854C16.9367 12.75 16.6982 12.6315 16.5223 12.4205C16.3465 12.2095 16.2477 11.9234 16.2477 11.625ZM17.1854 16.5C16.9367 16.5 16.6982 16.6185 16.5223 16.8295C16.3465 17.0405 16.2477 17.3266 16.2477 17.625C16.2477 17.9234 16.3465 18.2095 16.5223 18.4205C16.6982 18.6315 16.9367 18.75 17.1854 18.75H24.0615C24.3102 18.75 24.5487 18.6315 24.7245 18.4205C24.9004 18.2095 24.9992 17.9234 24.9992 17.625C24.9992 17.3266 24.9004 17.0405 24.7245 16.8295C24.5487 16.6185 24.3102 16.5 24.0615 16.5H17.1854ZM11.5594 11.625C11.5594 12.3212 11.3289 12.9889 10.9186 13.4812C10.5083 13.9734 9.95182 14.25 9.37156 14.25C8.7913 14.25 8.23481 13.9734 7.82451 13.4812C7.4142 12.9889 7.1837 12.3212 7.1837 11.625C7.1837 10.9288 7.4142 10.2611 7.82451 9.76884C8.23481 9.27656 8.7913 9 9.37156 9C9.95182 9 10.5083 9.27656 10.9186 9.76884C11.3289 10.2611 11.5594 10.9288 11.5594 11.625ZM6.24604 15.75H12.4971C12.8287 15.75 13.1467 15.908 13.3811 16.1893C13.6156 16.4706 13.7473 16.8522 13.7473 17.25V18C13.7473 18 13.1222 21.75 9.37156 21.75C5.62094 21.75 4.99583 18 4.99583 18V17.25C4.99583 16.8522 5.12755 16.4706 5.36201 16.1893C5.59647 15.908 5.91447 15.75 6.24604 15.75ZM0 4.125C0 3.03098 0.362225 1.98177 1.00699 1.20818C1.65175 0.434597 2.52624 0 3.43807 0H26.5619C27.4738 0 28.3482 0.434597 28.993 1.20818C29.6378 1.98177 30 3.03098 30 4.125V25.875C30 26.969 29.6378 28.0182 28.993 28.7918C28.3482 29.5654 27.4738 30 26.5619 30H3.43932C2.52749 30 1.653 29.5654 1.00824 28.7918C0.363475 28.0182 0.00125042 26.969 0.00125042 25.875V4.125H0ZM3.43807 2.25C2.57543 2.25 1.87531 3.09 1.87531 4.125V25.875C1.87531 26.91 2.57543 27.75 3.43807 27.75H26.5619C27.4246 27.75 28.1247 26.91 28.1247 25.875V4.125C28.1247 3.09 27.4246 2.25 26.5619 2.25H3.43932H3.43807Z" fill="#3B4BEE"/>
</svg>
