<svg width="30" height="30" viewBox="0 0 30 30" fill="none" xmlns="http://www.w3.org/2000/svg">
<path d="M13.1401 0.773723C13.658 0.274454 14.3177 0 15 0C15.6823 0 16.342 0.274454 16.8599 0.773723L25.9111 9.49295L29.4639 12.6884C29.6104 12.8202 29.7324 12.9831 29.8229 13.1679C29.9134 13.3527 29.9706 13.5557 29.9913 13.7654C30.012 13.975 29.9957 14.1872 29.9435 14.3898C29.8912 14.5924 29.804 14.7814 29.6867 14.9461C29.5695 15.1108 29.4245 15.2479 29.2601 15.3496C29.0957 15.4513 28.9151 15.5157 28.7286 15.5389C28.5421 15.5622 28.3534 15.5439 28.1731 15.4852C27.9929 15.4264 27.8247 15.3284 27.6782 15.1966L26.4283 14.0726V26.7885C26.4283 27.6402 26.1272 28.4571 25.5914 29.0594C25.0556 29.6616 24.3289 30 23.5712 30H6.42881C5.67107 30 4.94437 29.6616 4.40857 29.0594C3.87276 28.4571 3.57175 27.6402 3.57175 26.7885V14.0709L2.32179 15.195C2.02589 15.4611 1.64804 15.5843 1.27138 15.5373C0.894706 15.4903 0.550066 15.2771 0.313272 14.9445C0.0764779 14.6119 -0.0330725 14.1872 0.00872013 13.7638C0.0505128 13.3404 0.240225 12.953 0.536123 12.6868L4.08888 9.49135L13.1401 0.772117V0.773723ZM6.42881 11.4696V26.7885H10.7144V20.3655C10.7144 19.5138 11.0154 18.6969 11.5512 18.0946C12.087 17.4923 12.8137 17.154 13.5715 17.154H16.4285C17.1863 17.154 17.913 17.4923 18.4488 18.0946C18.9846 18.6969 19.2856 19.5138 19.2856 20.3655V26.7885H23.5712V11.4696L15 3.21125L6.42881 11.4696ZM16.4285 26.7885V20.3655H13.5715V26.7885H16.4285Z" fill="#3B4BEE"/>
</svg>
