<svg width="40" height="40" viewBox="0 0 40 40" fill="none" xmlns="http://www.w3.org/2000/svg">
<path d="M15.0014 0.693334C15.2454 0.989877 15.3949 1.35279 15.4306 1.73518C15.4663 2.11758 15.3864 2.50187 15.2014 2.83842C13.7559 5.49222 13.001 8.46689 13.0062 11.4888C13.0062 21.5417 21.2019 29.682 31.3029 29.682C32.6205 29.682 33.9031 29.5445 35.1357 29.282C35.5136 29.2002 35.9071 29.2315 36.2673 29.372C36.6275 29.5125 36.9383 29.756 37.1609 30.0721C37.3959 30.4007 37.5157 30.7978 37.5017 31.2015C37.4877 31.6053 37.3406 31.9931 37.0834 32.3047C35.1224 34.7133 32.6486 36.6541 29.8423 37.9854C27.036 39.3166 23.968 40.0049 20.8619 40C9.33585 40 0 30.7146 0 19.2741C0 10.6638 5.28548 3.27844 12.8112 0.148311C13.186 -0.0101159 13.6022 -0.0426324 13.9972 0.0556463C14.3921 0.153925 14.7445 0.377692 15.0014 0.693334V0.693334Z" fill="#303030"/>
<path d="M26.9876 7.86903C27.0235 7.76076 27.0925 7.66654 27.185 7.59976C27.2774 7.53299 27.3886 7.49704 27.5027 7.49704C27.6167 7.49704 27.7279 7.53299 27.8203 7.59976C27.9128 7.66654 27.9818 7.76076 28.0177 7.86903L28.9853 10.7741C29.4178 12.0692 30.4329 13.0842 31.728 13.5168L34.6333 14.4843C34.7416 14.5202 34.8358 14.5892 34.9026 14.6817C34.9694 14.7741 35.0053 14.8853 35.0053 14.9993C35.0053 15.1134 34.9694 15.2245 34.9026 15.317C34.8358 15.4094 34.7416 15.4785 34.6333 15.5143L31.728 16.4819C31.0893 16.6947 30.5089 17.0533 30.0328 17.5294C29.5567 18.0054 29.1981 18.5858 28.9853 19.2245L28.0177 22.1296C27.9818 22.2379 27.9128 22.3321 27.8203 22.3989C27.7279 22.4657 27.6167 22.5016 27.5027 22.5016C27.3886 22.5016 27.2774 22.4657 27.185 22.3989C27.0925 22.3321 27.0235 22.2379 26.9876 22.1296L26.02 19.2245C25.8072 18.5858 25.4486 18.0054 24.9725 17.5294C24.4964 17.0533 23.916 16.6947 23.2773 16.4819L20.372 15.5143C20.2637 15.4785 20.1695 15.4094 20.1027 15.317C20.0359 15.2245 20 15.1134 20 14.9993C20 14.8853 20.0359 14.7741 20.1027 14.6817C20.1695 14.5892 20.2637 14.5202 20.372 14.4843L23.2773 13.5168C23.916 13.304 24.4964 12.9453 24.9725 12.4693C25.4486 11.9932 25.8072 11.4129 26.02 10.7741L26.9876 7.86903V7.86903ZM34.6608 0.246208C34.6855 0.175021 34.7317 0.113292 34.7931 0.0696048C34.8545 0.0259172 34.928 0.00244141 35.0033 0.00244141C35.0787 0.00244141 35.1522 0.0259172 35.2135 0.0696048C35.2749 0.113292 35.3212 0.175021 35.3459 0.246208L35.9909 2.18129C36.2785 3.04633 36.956 3.72385 37.8211 4.01137L39.7563 4.65639C39.8275 4.68107 39.8892 4.72732 39.9329 4.78871C39.9766 4.85009 40.0001 4.92356 40.0001 4.99891C40.0001 5.07425 39.9766 5.14772 39.9329 5.20911C39.8892 5.27049 39.8275 5.31674 39.7563 5.34142L37.8211 5.98645C37.3948 6.12826 37.0074 6.3675 36.6897 6.68518C36.372 7.00286 36.1327 7.39023 35.9909 7.81652L35.3459 9.75161C35.3212 9.82279 35.2749 9.88452 35.2135 9.92821C35.1522 9.9719 35.0787 9.99537 35.0033 9.99537C34.928 9.99537 34.8545 9.9719 34.7931 9.92821C34.7317 9.88452 34.6855 9.82279 34.6608 9.75161L34.0157 7.81652C33.8739 7.39023 33.6347 7.00286 33.317 6.68518C32.9993 6.3675 32.6119 6.12826 32.1856 5.98645L30.2504 5.34142C30.1792 5.31674 30.1175 5.27049 30.0738 5.20911C30.0301 5.14772 30.0066 5.07425 30.0066 4.99891C30.0066 4.92356 30.0301 4.85009 30.0738 4.78871C30.1175 4.72732 30.1792 4.68107 30.2504 4.65639L32.1856 4.01137C33.0507 3.72385 33.7282 3.04633 34.0157 2.18129L34.6608 0.248708V0.246208Z" fill="#303030"/>
</svg>
