<svg width="30" height="30" viewBox="0 0 30 30" fill="none" xmlns="http://www.w3.org/2000/svg">
<path fill-rule="evenodd" clip-rule="evenodd" d="M5.45455 0C4.00791 0 2.62053 0.574674 1.5976 1.5976C0.574674 2.62053 0 4.00791 0 5.45455V24.5455C0 25.9921 0.574674 27.3795 1.5976 28.4024C2.62053 29.4253 4.00791 30 5.45455 30H24.5455C25.9921 30 27.3795 29.4253 28.4024 28.4024C29.4253 27.3795 30 25.9921 30 24.5455V5.45455C30 4.00791 29.4253 2.62053 28.4024 1.5976C27.3795 0.574674 25.9921 0 24.5455 0H5.45455ZM19.0377 7.19318C19.093 7.01933 19.1129 6.83616 19.0961 6.6545C19.0793 6.47284 19.0263 6.2964 18.9401 6.13561C18.8539 5.97483 18.7363 5.83297 18.5943 5.71844C18.4523 5.60392 18.2888 5.51904 18.1134 5.46886C17.938 5.41867 17.7543 5.40418 17.5732 5.42625C17.3922 5.44833 17.2173 5.50651 17.0591 5.59736C16.9009 5.68821 16.7626 5.80988 16.6522 5.95517C16.5419 6.10045 16.4619 6.2664 16.4168 6.44318L10.9623 22.8068C10.907 22.9807 10.8871 23.1638 10.9039 23.3455C10.9207 23.5272 10.9737 23.7036 11.0599 23.8644C11.1461 24.0252 11.2637 24.167 11.4057 24.2816C11.5477 24.3961 11.7112 24.481 11.8866 24.5311C12.062 24.5813 12.2457 24.5958 12.4268 24.5737C12.6078 24.5517 12.7827 24.4935 12.9409 24.4026C13.0991 24.3118 13.2374 24.1901 13.3478 24.0448C13.4581 23.8995 13.5381 23.7336 13.5832 23.5568L19.0377 7.19318ZM9.14591 11.8732C9.39431 11.616 9.53175 11.2715 9.52865 10.914C9.52554 10.5565 9.38213 10.2144 9.1293 9.96161C8.87647 9.70878 8.53445 9.56537 8.17691 9.56226C7.81937 9.55916 7.47491 9.6966 7.21773 9.945L3.12682 14.0359C2.87118 14.2916 2.72756 14.6384 2.72756 15C2.72756 15.3616 2.87118 15.7084 3.12682 15.9641L7.21773 20.055C7.47491 20.3034 7.81937 20.4408 8.17691 20.4377C8.53445 20.4346 8.87647 20.2912 9.1293 20.0384C9.38213 19.7856 9.52554 19.4435 9.52865 19.086C9.53175 18.7285 9.39431 18.384 9.14591 18.1268L6.01909 15L9.14591 11.8732ZM22.7823 9.945C22.6565 9.81476 22.506 9.71087 22.3396 9.63941C22.1733 9.56794 21.9943 9.53032 21.8133 9.52875C21.6322 9.52718 21.4527 9.56168 21.2851 9.63024C21.1175 9.69881 20.9652 9.80006 20.8372 9.9281C20.7092 10.0561 20.6079 10.2084 20.5393 10.376C20.4708 10.5436 20.4363 10.7231 20.4378 10.9042C20.4394 11.0852 20.477 11.2642 20.5485 11.4306C20.62 11.5969 20.7238 11.7474 20.8541 11.8732L23.9809 15L20.8541 18.1268C20.6057 18.384 20.4682 18.7285 20.4714 19.086C20.4745 19.4435 20.6179 19.7856 20.8707 20.0384C21.1235 20.2912 21.4655 20.4346 21.8231 20.4377C22.1806 20.4408 22.5251 20.3034 22.7823 20.055L26.8732 15.9641C27.1288 15.7084 27.2724 15.3616 27.2724 15C27.2724 14.6384 27.1288 14.2916 26.8732 14.0359L22.7823 9.945Z" fill="#3B4BEE"/>
</svg>
