<svg width="10" height="10" viewBox="0 0 10 10" fill="none" xmlns="http://www.w3.org/2000/svg">
<path fill-rule="evenodd" clip-rule="evenodd" d="M0 5C0 4.81059 0.0658408 4.62895 0.183038 4.49502C0.300235 4.36108 0.459188 4.28584 0.62493 4.28584H7.86537L5.18192 1.22068C5.06458 1.08658 4.99865 0.904705 4.99865 0.715059C4.99865 0.525414 5.06458 0.343536 5.18192 0.209436C5.29927 0.0753365 5.45842 0 5.62437 0C5.79032 0 5.94948 0.0753365 6.06682 0.209436L9.8164 4.49438C9.8746 4.56072 9.92077 4.63952 9.95228 4.72629C9.98378 4.81305 10 4.90606 10 5C10 5.09394 9.98378 5.18695 9.95228 5.27371C9.92077 5.36048 9.8746 5.43928 9.8164 5.50562L6.06682 9.79056C5.94948 9.92466 5.79032 10 5.62437 10C5.45842 10 5.29927 9.92466 5.18192 9.79056C5.06458 9.65647 4.99865 9.47459 4.99865 9.28494C4.99865 9.0953 5.06458 8.91342 5.18192 8.77932L7.86537 5.71416H0.62493C0.459188 5.71416 0.300235 5.63892 0.183038 5.50499C0.0658408 5.37106 0 5.18941 0 5Z" fill="#FBFBFB"/>
</svg>
