<svg width="40" height="60" viewBox="0 0 40 60" fill="none" xmlns="http://www.w3.org/2000/svg">
<path d="M33.3631 59.9997C32.5092 60.0019 31.6656 59.8606 30.8942 59.5862C30.1227 59.3118 29.4431 58.9113 28.9051 58.4141L1.30017 32.7023C0.459547 31.9355 0 30.9737 0 29.9811C0 28.9885 0.459547 28.0267 1.30017 27.2599L29.8767 1.54808C30.8468 0.672947 32.2409 0.122608 33.7522 0.0181333C35.2634 -0.0863414 36.7682 0.263605 37.9353 0.990987C39.1025 1.71837 39.8365 2.76361 39.9758 3.89675C40.1152 5.0299 39.6484 6.15814 38.6783 7.03327L13.1309 30.0025L37.821 52.9718C38.5199 53.6008 38.9639 54.3668 39.1003 55.179C39.2368 55.9913 39.0601 56.8159 38.5911 57.5553C38.1222 58.2946 37.3805 58.9177 36.454 59.3509C35.5275 59.7841 34.4549 60.0093 33.3631 59.9997Z" fill="#2A7DE1"/>
</svg>
