<svg width="41" height="61" viewBox="0 0 41 61" fill="none" xmlns="http://www.w3.org/2000/svg">
<path d="M34.3556 60.9985C33.5018 61.0007 32.6582 60.8594 31.8867 60.585C31.1153 60.3106 30.4356 59.9101 29.8977 59.4129L2.29272 33.7011C1.4521 32.9343 0.992554 31.9725 0.992554 30.9799C0.992554 29.9873 1.4521 29.0255 2.29272 28.2587L30.8693 2.54686C31.8394 1.67173 33.2334 1.12139 34.7447 1.01691C36.256 0.912438 37.7607 1.26238 38.9279 1.98977C40.0951 2.71715 40.829 3.76239 40.9684 4.89553C41.1077 6.02868 40.641 7.15692 39.6709 8.03205L14.1234 31.0013L38.8136 53.9706C39.5125 54.5996 39.9564 55.3656 40.0929 56.1778C40.2294 56.9901 40.0527 57.8147 39.5837 58.554C39.1147 59.2934 38.3731 59.9165 37.4466 60.3497C36.5201 60.7829 35.4475 61.008 34.3556 60.9985Z" fill="#303030"/>
</svg>
