<svg width="18" height="20" viewBox="0 0 18 20" fill="none" xmlns="http://www.w3.org/2000/svg">
<g clip-path="url(#clip0)">
<path d="M8.78652 19.9372L1.62625 17.9494L0.0305786 0.0524902H17.5639L15.9666 17.9466L8.78652 19.9372V19.9372Z" fill="#264DE4"/>
<path d="M14.5991 16.8075L15.9641 1.51611H8.79726V18.416L14.5991 16.8075V16.8075Z" fill="#2965F1"/>
<path d="M3.68858 8.15381L3.88528 10.3488H8.79725V8.15381H3.68858Z" fill="#EBEBEB"/>
<path d="M3.29327 3.71094L3.49279 5.90592H8.79726V3.71094H3.29327V3.71094Z" fill="#EBEBEB"/>
<path d="M8.79726 13.8544L8.78764 13.8569L6.3431 13.1969L6.18681 11.4463H3.98337L4.29086 14.8927L8.78715 16.1409L8.79726 16.1381V13.8544Z" fill="#EBEBEB"/>
<path d="M13.8919 8.15362L14.2881 3.71094H8.78968V5.90592H11.8826L11.6829 8.15362H8.78968V10.3486H11.4926L11.2377 13.1953L8.78961 13.8561V16.1397L13.2895 14.8926L13.3225 14.5217L13.8383 8.74303L13.8919 8.15362V8.15362Z" fill="white"/>
</g>
<defs>
<clipPath id="clip0">
<rect width="17.5945" height="20" fill="white"/>
</clipPath>
</defs>
</svg>
