<svg width="20" height="20" viewBox="0 0 20 20" fill="none" xmlns="http://www.w3.org/2000/svg">
<path d="M0 0H20V20H0V0Z" fill="#F7DF1E"/>
<path d="M5.25875 16.7136L6.78921 15.7874C7.08453 16.3109 7.35312 16.7538 7.99742 16.7538C8.615 16.7538 9.00445 16.5123 9.00445 15.5726V9.18213H10.8839V15.5992C10.8839 17.5458 9.74281 18.4319 8.07796 18.4319C6.57445 18.4319 5.70171 17.6532 5.25867 16.7135" fill="black"/>
<path d="M11.9047 16.5123L13.4351 15.6263C13.8379 16.2842 14.3615 16.7674 15.2878 16.7674C16.0666 16.7674 16.5632 16.3781 16.5632 15.841C16.5632 15.1967 16.053 14.9684 15.1938 14.5926L14.724 14.391C13.368 13.8139 12.4686 13.0889 12.4686 11.5585C12.4686 10.1488 13.5426 9.07471 15.2208 9.07471C16.4156 9.07471 17.2748 9.49096 17.8923 10.5784L16.4289 11.5182C16.1066 10.941 15.7577 10.7128 15.2207 10.7128C14.6702 10.7128 14.3211 11.0618 14.3211 11.5182C14.3211 12.082 14.6702 12.3104 15.4757 12.6595L15.9455 12.8608C17.5432 13.5456 18.4426 14.2436 18.4426 15.8142C18.4426 17.506 17.1136 18.4322 15.328 18.4322C13.5828 18.4322 12.4551 17.5999 11.9047 16.5124" fill="black"/>
</svg>
