<svg width="23" height="20" viewBox="0 0 23 20" fill="none" xmlns="http://www.w3.org/2000/svg">
<path d="M18.4823 6.4824C18.2431 6.40033 18.0018 6.32429 17.7588 6.25436C17.7996 6.08753 17.8372 5.92271 17.8706 5.76079C18.4183 3.10184 18.0602 0.959738 16.8371 0.254455C15.6644 -0.421675 13.7466 0.283345 11.8097 1.96902C11.6188 2.13544 11.4322 2.30667 11.2499 2.48252C11.1279 2.36558 11.0038 2.25092 10.8775 2.13858C8.84756 0.336206 6.81284 -0.423431 5.59107 0.283872C4.41943 0.962109 4.0725 2.97584 4.56563 5.49578C4.6147 5.74536 4.67009 5.99364 4.73177 6.2404C4.44376 6.32224 4.16584 6.40935 3.89987 6.50207C1.51989 7.33187 0 8.63223 0 9.98107C0 11.3742 1.63167 12.7715 4.11052 13.6187C4.31148 13.6871 4.51412 13.7505 4.71825 13.8088C4.65195 14.0746 4.5931 14.3422 4.54175 14.6112C4.07162 17.0875 4.43875 19.0536 5.60723 19.7275C6.81407 20.4235 8.83965 19.7082 10.8119 17.9841C10.9719 17.8439 11.1283 17.6998 11.281 17.5518C11.4784 17.7422 11.681 17.9271 11.8886 18.1062C13.7992 19.7502 15.686 20.414 16.8534 19.7382C18.0591 19.0402 18.451 16.9281 17.9422 14.3584C17.9021 14.157 17.8572 13.9567 17.8074 13.7576C17.9497 13.7154 18.0893 13.672 18.2254 13.6269C20.8024 12.7731 22.4791 11.3928 22.4791 9.98107C22.4791 8.62732 20.9102 7.31817 18.4823 6.4824V6.4824ZM17.9234 12.7154C17.8005 12.7561 17.6744 12.7954 17.5458 12.8335C17.2613 11.9329 16.8774 10.9752 16.4076 9.98572C16.8559 9.01982 17.2251 8.07438 17.5016 7.17961C17.7316 7.24617 17.9547 7.31633 18.1698 7.39035C20.25 8.10652 21.5188 9.16524 21.5188 9.98107C21.5188 10.85 20.1485 11.9781 17.9234 12.7154V12.7154ZM17.0002 14.5449C17.2252 15.6811 17.2572 16.7085 17.1082 17.5117C16.9744 18.2334 16.7052 18.7145 16.3722 18.9072C15.6638 19.3173 14.1489 18.7843 12.515 17.3783C12.3218 17.2117 12.1334 17.0399 11.9498 16.8628C12.5832 16.1701 13.2162 15.3648 13.8341 14.4704C14.9208 14.374 15.9475 14.2163 16.8785 14.0011C16.9243 14.1861 16.9651 14.3675 17.0002 14.5449V14.5449ZM7.66363 18.8364C6.97152 19.0807 6.42025 19.0878 6.08701 18.8956C5.37796 18.4867 5.08318 16.908 5.48526 14.7904C5.53305 14.5401 5.58778 14.2913 5.64937 14.0441C6.57014 14.2478 7.58934 14.3943 8.67861 14.4826C9.30065 15.3578 9.95193 16.1622 10.6083 16.8666C10.4688 17.0016 10.326 17.1331 10.1801 17.2611C9.30785 18.0234 8.43389 18.5643 7.66363 18.8364V18.8364ZM4.42119 12.7101C3.32507 12.3354 2.41984 11.8485 1.79938 11.3172C1.2418 10.8398 0.960368 10.3657 0.960368 9.98107C0.960368 9.16251 2.18065 8.11846 4.21598 7.40888C4.46299 7.32282 4.7215 7.2416 4.98975 7.16538C5.27109 8.08035 5.64007 9.03703 6.08535 10.0044C5.63427 10.9861 5.26003 11.9581 4.97597 12.8839C4.78964 12.8305 4.60466 12.7725 4.42119 12.7101V12.7101ZM5.50809 5.31129C5.08564 3.15233 5.36619 1.52374 6.07226 1.11498C6.82426 0.679627 8.48719 1.30035 10.2399 2.85668C10.3542 2.95839 10.4667 3.06217 10.5772 3.16796C9.9241 3.86929 9.27879 4.66774 8.66228 5.53775C7.60506 5.63575 6.59306 5.7931 5.66263 6.00393C5.60531 5.77442 5.55378 5.54349 5.50809 5.31138V5.31129ZM15.2046 7.70567C14.9848 7.32607 14.7569 6.95124 14.521 6.58145C15.2382 6.67216 15.9254 6.79255 16.5707 6.93971C16.377 7.5607 16.1355 8.20987 15.8513 8.87547C15.6435 8.48127 15.4279 8.09126 15.2046 7.70567V7.70567ZM11.2504 3.85428C11.6933 4.33415 12.1369 4.86988 12.5732 5.45117C11.6881 5.40937 10.8015 5.4092 9.91637 5.45065C10.3531 4.87471 10.8005 4.33969 11.2504 3.85428ZM7.27077 7.71226C7.05022 8.09474 6.83863 8.48232 6.63617 8.87467C6.35659 8.21145 6.11731 7.55929 5.92193 6.92953C6.56329 6.78605 7.24724 6.66873 7.9599 6.5797C7.72135 6.95174 7.49158 7.32934 7.27077 7.71217V7.71226ZM7.98035 13.4508C7.24408 13.3686 6.54986 13.2573 5.90867 13.1177C6.10712 12.4767 6.35167 11.8107 6.63731 11.1332C6.84058 11.5259 7.05305 11.9137 7.27455 12.2963C7.50232 12.6897 7.73818 13.075 7.98035 13.4508ZM11.2769 16.1755C10.8217 15.6844 10.3677 15.1412 9.92436 14.5569C10.3548 14.5738 10.7936 14.5824 11.2396 14.5824C11.6978 14.5824 12.1507 14.5721 12.5965 14.5522C12.1588 15.1471 11.7168 15.6911 11.2769 16.1755ZM15.8603 11.0986C16.1608 11.7835 16.4141 12.446 16.6151 13.0761C15.9634 13.2248 15.2597 13.3446 14.5183 13.4335C14.7559 13.0569 14.9859 12.6756 15.2084 12.2897C15.4345 11.8976 15.6519 11.5004 15.8603 11.0986V11.0986ZM14.3765 11.81C14.036 12.4015 13.6764 12.9818 13.2982 13.5499C12.613 13.5984 11.9264 13.6225 11.2396 13.6222C10.54 13.6222 9.85956 13.6004 9.20433 13.5579C8.81623 12.9911 8.44972 12.4098 8.10557 11.8152H8.10566C7.76313 11.2238 7.44319 10.6197 7.14652 10.004C7.44243 9.38817 7.76141 8.78371 8.10276 8.19187L8.10267 8.19196C8.4439 7.59997 8.80749 7.02115 9.19265 6.45676C9.86114 6.40619 10.5467 6.37984 11.2395 6.37984H11.2396C11.9355 6.37984 12.6219 6.40645 13.2903 6.45738C13.6715 7.02092 14.0328 7.59775 14.3734 8.18678C14.7159 8.77731 15.0391 9.37883 15.3424 9.99038C15.0422 10.6082 14.72 11.2151 14.3765 11.81V11.81ZM16.3575 1.08636C17.1102 1.52049 17.403 3.27114 16.93 5.56691C16.8998 5.71337 16.8659 5.86256 16.8291 6.01385C15.8963 5.79855 14.8836 5.63847 13.8233 5.53898C13.2057 4.6594 12.5657 3.85972 11.9232 3.16743C12.0915 3.00512 12.2639 2.84702 12.4402 2.69327C14.0998 1.24907 15.6508 0.678837 16.3575 1.08636V1.08636ZM11.2396 7.97375C12.3482 7.97375 13.2469 8.87248 13.2469 9.98107C13.2469 11.0897 12.3482 11.9884 11.2396 11.9884C10.131 11.9884 9.23225 11.0897 9.23225 9.98107C9.23225 8.87248 10.131 7.97375 11.2396 7.97375V7.97375Z" fill="#00D8FF"/>
</svg>
