<svg width="20" height="20" viewBox="0 0 20 20" fill="none" xmlns="http://www.w3.org/2000/svg">
<path d="M17.93 1.25H2.07C1.61713 1.25 1.25 1.61713 1.25 2.07V17.93C1.25 18.3829 1.61713 18.75 2.07 18.75H17.93C18.3829 18.75 18.75 18.3829 18.75 17.93V2.07C18.75 1.61713 18.3829 1.25 17.93 1.25Z" fill="#3178C6"/>
<path fill-rule="evenodd" clip-rule="evenodd" d="M11.4031 14.8495V16.767C11.7515 16.939 12.1228 17.06 12.5056 17.1264C12.948 17.208 13.397 17.2482 13.8469 17.2464C14.2853 17.2485 14.7227 17.2043 15.1519 17.1145C15.5372 17.0366 15.9048 16.8883 16.2362 16.677C16.5439 16.4784 16.7976 16.2065 16.9744 15.8857C17.291 15.2216 17.3328 14.4593 17.0906 13.7645C16.9884 13.5047 16.8362 13.2675 16.6425 13.0664C16.4346 12.8525 16.1985 12.6681 15.9406 12.5182C15.6438 12.3444 15.3353 12.1911 15.0175 12.0595C14.7675 11.9557 14.5425 11.8549 14.3425 11.757C14.1649 11.6719 13.9949 11.5718 13.8344 11.4576C13.7087 11.3695 13.5995 11.2599 13.5119 11.1339C13.4362 11.0194 13.3967 10.8848 13.3987 10.7476C13.3971 10.6213 13.4323 10.4973 13.5 10.3907C13.5736 10.2792 13.6717 10.186 13.7869 10.1182C13.9277 10.0354 14.0809 9.97563 14.2406 9.94137C14.4367 9.8978 14.6372 9.87683 14.8381 9.87887C15.0071 9.87945 15.1758 9.89157 15.3431 9.91512C15.5238 9.93955 15.7026 9.97652 15.8781 10.0257C16.0567 10.0752 16.2313 10.1379 16.4006 10.2132C16.5649 10.2865 16.722 10.3748 16.87 10.477V8.68762C16.5619 8.57107 16.2425 8.48728 15.9169 8.43762C15.5237 8.38041 15.1267 8.35346 14.7294 8.357C14.2951 8.35466 13.862 8.40396 13.4394 8.50387C13.0573 8.59117 12.6941 8.74634 12.3669 8.962C12.0629 9.16448 11.8119 9.43688 11.635 9.75637C11.4475 10.1112 11.3547 10.5083 11.3656 10.9095C11.3518 11.44 11.5265 11.9582 11.8587 12.372C12.2664 12.8308 12.7804 13.1825 13.3556 13.3964C13.6181 13.5047 13.8629 13.6107 14.09 13.7145C14.2949 13.8057 14.4918 13.9137 14.6787 14.0376C14.8295 14.1357 14.9619 14.2595 15.07 14.4032C15.165 14.5337 15.2154 14.6913 15.2137 14.8526C15.2146 14.9735 15.1836 15.0925 15.1237 15.1976C15.0573 15.3105 14.9639 15.4052 14.8519 15.4732C14.7117 15.5587 14.5584 15.6204 14.3981 15.6557C14.1893 15.7024 13.9758 15.7245 13.7619 15.7214C13.3421 15.7206 12.9256 15.6466 12.5312 15.5026C12.1193 15.354 11.7372 15.1328 11.4031 14.8495V14.8495ZM8.18187 10.0757H10.6819V8.49637H3.71124V10.0757H6.19999V17.1095H8.18187V10.0757Z" fill="white"/>
</svg>
