<svg width="18" height="18" viewBox="0 0 18 18" fill="none" xmlns="http://www.w3.org/2000/svg">
<path d="M16.93 0.25H1.07C0.617127 0.25 0.25 0.617127 0.25 1.07V16.93C0.25 17.3829 0.617127 17.75 1.07 17.75H16.93C17.3829 17.75 17.75 17.3829 17.75 16.93V1.07C17.75 0.617127 17.3829 0.25 16.93 0.25Z" fill="#3178C6"/>
<path fill-rule="evenodd" clip-rule="evenodd" d="M10.4031 13.8495V15.767C10.7515 15.939 11.1228 16.06 11.5056 16.1264C11.948 16.208 12.397 16.2482 12.8469 16.2464C13.2853 16.2485 13.7227 16.2043 14.1519 16.1145C14.5372 16.0366 14.9048 15.8883 15.2362 15.677C15.5439 15.4784 15.7976 15.2065 15.9744 14.8857C16.291 14.2216 16.3328 13.4593 16.0906 12.7645C15.9884 12.5047 15.8362 12.2675 15.6425 12.0664C15.4346 11.8525 15.1985 11.6681 14.9406 11.5182C14.6438 11.3444 14.3353 11.1911 14.0175 11.0595C13.7675 10.9557 13.5425 10.8549 13.3425 10.757C13.1649 10.6719 12.9949 10.5718 12.8344 10.4576C12.7087 10.3695 12.5995 10.2599 12.5119 10.1339C12.4362 10.0194 12.3967 9.88482 12.3987 9.74762C12.3971 9.62135 12.4323 9.49733 12.5 9.39075C12.5736 9.2792 12.6717 9.18598 12.7869 9.11825C12.9277 9.03535 13.0809 8.97563 13.2406 8.94137C13.4367 8.8978 13.6372 8.87683 13.8381 8.87887C14.0071 8.87945 14.1758 8.89157 14.3431 8.91512C14.5238 8.93955 14.7026 8.97652 14.8781 9.02575C15.0567 9.07524 15.2313 9.13791 15.4006 9.21325C15.5649 9.28647 15.722 9.37477 15.87 9.477V7.68762C15.5619 7.57107 15.2425 7.48728 14.9169 7.43762C14.5237 7.38041 14.1267 7.35346 13.7294 7.357C13.2951 7.35466 12.862 7.40396 12.4394 7.50387C12.0573 7.59117 11.6941 7.74634 11.3669 7.962C11.0629 8.16448 10.8119 8.43688 10.635 8.75637C10.4475 9.11117 10.3547 9.50835 10.3656 9.9095C10.3518 10.44 10.5265 10.9582 10.8587 11.372C11.2664 11.8308 11.7804 12.1825 12.3556 12.3964C12.6181 12.5047 12.8629 12.6107 13.09 12.7145C13.2949 12.8057 13.4918 12.9137 13.6787 13.0376C13.8295 13.1357 13.9619 13.2595 14.07 13.4032C14.165 13.5337 14.2154 13.6913 14.2137 13.8526C14.2146 13.9735 14.1836 14.0925 14.1237 14.1976C14.0573 14.3105 13.9639 14.4052 13.8519 14.4732C13.7117 14.5587 13.5584 14.6204 13.3981 14.6557C13.1893 14.7024 12.9758 14.7245 12.7619 14.7214C12.3421 14.7206 11.9256 14.6466 11.5312 14.5026C11.1193 14.354 10.7372 14.1328 10.4031 13.8495V13.8495ZM7.18187 9.07575H9.68187V7.49637H2.71124V9.07575H5.19999V16.1095H7.18187V9.07575Z" fill="white"/>
</svg>
