<svg width="35" height="35" viewBox="0 0 35 35" fill="none" xmlns="http://www.w3.org/2000/svg">
<path d="M6.39079 0C2.85057 0 0 2.85057 0 6.39078V28.6092C0 32.1494 2.85057 35 6.39079 35H18.433V21.3172H14.8149V16.3909H18.433V12.1822C18.433 8.87556 20.5708 5.83953 25.4953 5.83953C27.4892 5.83953 28.9636 6.03094 28.9636 6.03094L28.8477 10.6313C28.8477 10.6313 27.344 10.6171 25.7031 10.6171C23.9273 10.6171 23.6425 11.4353 23.6425 12.7936V16.391H28.9888L28.7558 21.3172H23.6425V35H28.6092C32.1494 35 35 32.1494 35 28.6092V6.39081C35 2.8506 32.1494 3.49999e-05 28.6092 3.49999e-05H6.39076L6.39079 0Z" fill="#2A7DE1"/>
</svg>
