<svg width="35" height="30" viewBox="0 0 35 30" fill="none" xmlns="http://www.w3.org/2000/svg">
<path d="M7.95457 29.8527V14.4781L3.76072 10.116L0 7.69531V27.1395C0 28.6407 1.06982 29.8527 2.38643 29.8527H7.95457Z" fill="#4285F4"/>
<path d="M27.0454 29.8521H32.6136C33.9341 29.8521 35 28.6356 35 27.1388V7.69482L30.7404 10.4674L27.0454 14.4775V29.8521Z" fill="#34A853"/>
<path d="M7.95458 14.4781L7.38391 8.47077L7.95458 2.72119L17.5 10.8607L27.0454 2.72119L27.6839 8.16036L27.0454 14.4781L17.5 22.6175L7.95458 14.4781Z" fill="#EA4335"/>
<path d="M27.0454 2.72127V14.4781L35 7.69536V4.07779C35 0.722616 31.6312 -1.19008 29.2728 0.822097L27.0454 2.72127Z" fill="#FBBC04"/>
<path d="M0 7.69494L3.65846 10.8146L7.95457 14.4777V2.72085L5.72715 0.821681C3.36465 -1.19065 0 0.722199 0 4.07722V7.69478V7.69494Z" fill="#C5221F"/>
</svg>
