<svg width="35" height="35" viewBox="0 0 35 35" fill="none" xmlns="http://www.w3.org/2000/svg">
<path d="M17.5 13.3328C16.6759 13.3331 15.8703 13.5778 15.1853 14.0359C14.5002 14.494 13.9663 15.1449 13.6511 15.9064C13.336 16.6679 13.2537 17.5057 13.4146 18.3139C13.5756 19.1222 13.9726 19.8646 14.5555 20.4472C15.1383 21.0298 15.8808 21.4266 16.6892 21.5872C17.4975 21.7479 18.3353 21.6653 19.0966 21.3498C19.858 21.0344 20.5087 20.5003 20.9666 19.815C21.4244 19.1297 21.6687 18.3241 21.6687 17.5C21.6679 16.3948 21.2284 15.3351 20.4467 14.5537C19.6651 13.7724 18.6052 13.3332 17.5 13.3328ZM27.243 10.1297C27.0308 9.59206 26.7105 9.10377 26.3018 8.69508C25.8931 8.2864 25.4048 7.96605 24.8672 7.75391C23.2266 7.10625 19.3203 7.25156 17.5 7.25156C15.6797 7.25156 11.7773 7.10078 10.132 7.75391C9.59441 7.96605 9.10611 8.2864 8.69743 8.69508C8.28874 9.10377 7.96839 9.59206 7.75625 10.1297C7.10938 11.7703 7.25391 15.6805 7.25391 17.4992C7.25391 19.318 7.10938 23.2234 7.75938 24.8695C7.97152 25.4072 8.29187 25.8955 8.70055 26.3041C9.10923 26.7128 9.59753 27.0332 10.1352 27.2453C11.7758 27.893 15.682 27.7477 17.5031 27.7477C19.3242 27.7477 23.225 27.8984 24.8703 27.2453C25.4079 27.0332 25.8962 26.7128 26.3049 26.3041C26.7136 25.8955 27.034 25.4072 27.2461 24.8695C27.8984 23.2289 27.7484 19.3188 27.7484 17.5C27.7484 15.6812 27.8984 11.7766 27.2461 10.1305L27.243 10.1297ZM17.5 23.9062C16.233 23.9062 14.9944 23.5305 13.9409 22.8266C12.8874 22.1227 12.0663 21.1222 11.5814 19.9516C11.0965 18.781 10.9697 17.4929 11.2168 16.2502C11.464 15.0075 12.0742 13.866 12.9701 12.9701C13.866 12.0742 15.0075 11.464 16.2502 11.2168C17.4929 10.9697 18.781 11.0965 19.9516 11.5814C21.1222 12.0663 22.1227 12.8874 22.8266 13.9409C23.5305 14.9944 23.9062 16.233 23.9062 17.5C23.9073 18.3416 23.7423 19.1751 23.4207 19.9528C23.0991 20.7305 22.6273 21.4371 22.0322 22.0322C21.4371 22.6273 20.7305 23.0991 19.9528 23.4207C19.1751 23.7423 18.3416 23.9073 17.5 23.9062ZM24.1703 12.3203C23.8745 12.3205 23.5854 12.2329 23.3393 12.0687C23.0933 11.9045 22.9016 11.671 22.7883 11.3978C22.675 11.1246 22.6452 10.8239 22.7029 10.5338C22.7605 10.2436 22.9028 9.97713 23.1119 9.76793C23.321 9.55873 23.5874 9.41624 23.8775 9.35848C24.1676 9.30072 24.4683 9.33028 24.7416 9.44344C25.0149 9.55659 25.2484 9.74825 25.4128 9.99417C25.5771 10.2401 25.6648 10.5292 25.6648 10.825C25.6657 11.0214 25.6277 11.2161 25.5531 11.3978C25.4786 11.5795 25.3688 11.7447 25.2303 11.8839C25.0917 12.0231 24.927 12.1336 24.7457 12.209C24.5643 12.2845 24.3699 12.3233 24.1734 12.3234L24.1703 12.3203ZM31.25 0H3.75C2.75544 0 1.80161 0.395088 1.09835 1.09835C0.395088 1.80161 0 2.75544 0 3.75L0 31.25C0 32.2446 0.395088 33.1984 1.09835 33.9016C1.80161 34.6049 2.75544 35 3.75 35H31.25C32.2446 35 33.1984 34.6049 33.9016 33.9016C34.6049 33.1984 35 32.2446 35 31.25V3.75C35 2.75544 34.6049 1.80161 33.9016 1.09835C33.1984 0.395088 32.2446 0 31.25 0ZM29.9125 22.6562C29.8117 24.6586 29.3547 26.4328 27.893 27.8906C26.4312 29.3484 24.6586 29.8148 22.6586 29.9102C20.5953 30.0266 14.4094 30.0266 12.3461 29.9102C10.3438 29.8094 8.57578 29.3516 7.11172 27.8906C5.64766 26.4297 5.1875 24.6547 5.09219 22.6562C4.97578 20.5922 4.97578 14.4055 5.09219 12.3438C5.19297 10.3414 5.64453 8.56719 7.11172 7.10938C8.57891 5.65156 10.3516 5.19063 12.3461 5.09531C14.4094 4.97891 20.5953 4.97891 22.6586 5.09531C24.6609 5.19609 26.4344 5.65391 27.893 7.11484C29.3516 8.57578 29.8172 10.3508 29.9125 12.3531C30.0289 14.4094 30.0289 20.5906 29.9125 22.6562Z" fill="#F5389E"/>
</svg>
