<svg width="35" height="35" viewBox="0 0 35 35" fill="none" xmlns="http://www.w3.org/2000/svg">
<path d="M6.85869 0C3.08695 0 0 3.08688 0 6.85869V28.1424C0 31.9142 3.08688 35 6.85869 35H28.1424C31.9142 35 35 31.9142 35 28.1424V6.85869C35 3.08695 31.9142 0 28.1424 0H6.85869ZM8.58376 5.7757C10.3922 5.7757 11.5062 6.96293 11.5406 8.52353C11.5406 10.0497 10.3922 11.2703 8.54878 11.2703H8.51485C6.7408 11.2703 5.59415 10.0497 5.59415 8.52353C5.59415 6.96297 6.7755 5.7757 8.58372 5.7757H8.58376ZM24.1684 13.0697C27.6464 13.0697 30.2537 15.343 30.2537 20.2281V29.3478H24.968V20.8396C24.968 18.7015 24.203 17.2429 22.2902 17.2429C20.8299 17.2429 19.9595 18.226 19.5773 19.1758C19.4377 19.5156 19.4034 19.9901 19.4034 20.4655V29.3478H14.1178C14.1178 29.3478 14.1871 14.9351 14.1178 13.4427H19.4045V15.6951C20.1069 14.6113 21.3633 13.0697 24.1684 13.0697V13.0697ZM5.90593 13.4439H11.1916V29.3479H5.90593V13.4439Z" fill="#2A7DE1"/>
</svg>
