<svg width="35" height="35" viewBox="0 0 35 35" fill="none" xmlns="http://www.w3.org/2000/svg">
<path d="M34.9315 4.169C33.6211 4.87883 32.233 5.34737 30.8117 5.55956C32.3081 4.45295 33.4285 2.71752 33.966 0.673759C32.5792 1.66958 31.0421 2.39447 29.4058 2.79818C28.3263 1.37788 26.8958 0.435876 25.3366 0.118434C23.7773 -0.199009 22.1764 0.125878 20.7826 1.04264C19.3888 1.95941 18.28 3.41675 17.6284 5.18837C16.9768 6.95999 16.8189 8.94674 17.1792 10.8401C11.2146 10.4938 5.93104 6.96807 2.39167 1.64267C1.74824 2.98804 1.41263 4.52252 1.42042 6.08349C1.42042 9.1517 2.68917 11.8485 4.61125 13.4328C3.47208 13.3882 2.35808 13.0093 1.36208 12.3276V12.4352C1.36144 14.4742 1.93414 16.4507 2.98303 18.0293C4.03192 19.608 5.49239 20.6915 7.11667 21.0962C6.06419 21.4431 4.96185 21.4953 3.89083 21.2487C4.35184 23.0035 5.24659 24.5375 6.45023 25.6366C7.65387 26.7357 9.10635 27.3451 10.605 27.3797C8.06681 29.8306 4.93278 31.1608 1.70625 31.1567C1.1375 31.1567 0.570208 31.1154 0 31.0364C3.28958 33.628 7.1145 35.0036 11.0206 35C24.2229 35 31.4344 21.5501 31.4344 9.90709C31.4344 9.53029 31.4344 9.15349 31.4125 8.77669C32.8212 7.52943 34.0364 5.98089 35 4.20489L34.9315 4.169Z" fill="#2A7DE1"/>
</svg>
