<svg width="62" height="26" viewBox="0 0 62 26" fill="none" xmlns="http://www.w3.org/2000/svg">
<path d="M8.63 17.9C8.54 19.28 8.435 20.6 8.315 21.86C8.195 23.09 8.105 24.17 8.045 25.1C8.015 25.46 7.94 25.7 7.82 25.82C7.7 25.94 7.445 26 7.055 26H5.435C4.505 26 3.74 25.91 3.14 25.73C2.57 25.52 2.105 25.235 1.745 24.875C1.415 24.515 1.175 24.08 1.025 23.57C0.905 23.03 0.845 22.415 0.845 21.725C0.845 21.275 0.86 20.645 0.89 19.835C0.95 18.995 1.04 17.855 1.16 16.415C1.28 14.945 1.415 13.1 1.565 10.88C1.745 8.63 1.955 5.855 2.195 2.555C2.225 1.895 2.3 1.505 2.42 1.385C2.51 1.295 2.75 1.25 3.14 1.25H4.895C5.795 1.25 6.53 1.355 7.1 1.565C7.67 1.775 8.135 2.045 8.495 2.375C8.855 2.705 9.11 3.095 9.26 3.545C9.41 3.995 9.5 4.46 9.53 4.94C10.4 3.32 11.39 2.225 12.5 1.655C13.61 1.085 14.915 0.8 16.415 0.8C17.225 0.8 18.005 0.875 18.755 1.025C19.505 1.175 20.18 1.43 20.78 1.79C21.38 2.15 21.89 2.63 22.31 3.23C22.73 3.8 23.03 4.535 23.21 5.435C24.14 3.695 25.16 2.495 26.27 1.835C27.38 1.145 28.775 0.8 30.455 0.8C31.385 0.8 32.27 0.904999 33.11 1.115C33.98 1.295 34.73 1.625 35.36 2.105C35.99 2.585 36.485 3.245 36.845 4.085C37.235 4.895 37.43 5.915 37.43 7.145C37.43 8.075 37.385 9.215 37.295 10.565C37.205 11.915 37.1 13.385 36.98 14.975C36.86 16.535 36.725 18.155 36.575 19.835C36.425 21.485 36.305 23.075 36.215 24.605C36.185 24.935 36.155 25.19 36.125 25.37C36.095 25.55 36.035 25.685 35.945 25.775C35.885 25.865 35.78 25.925 35.63 25.955C35.48 25.985 35.27 26 35 26H33.56C32.6 26 31.82 25.91 31.22 25.73C30.62 25.55 30.155 25.295 29.825 24.965C29.495 24.635 29.255 24.23 29.105 23.75C28.985 23.24 28.925 22.67 28.925 22.04C28.925 21.65 28.94 21.095 28.97 20.375C29.03 19.655 29.09 18.875 29.15 18.035C29.24 17.195 29.315 16.325 29.375 15.425C29.465 14.525 29.54 13.7 29.6 12.95C29.69 12.17 29.75 11.495 29.78 10.925C29.84 10.355 29.87 9.98 29.87 9.8C29.87 9.02 29.705 8.33 29.375 7.73C29.075 7.13 28.475 6.83 27.575 6.83C26.795 6.83 26.12 7.085 25.55 7.595C24.98 8.105 24.5 8.81 24.11 9.71C23.72 10.61 23.405 11.675 23.165 12.905C22.925 14.135 22.76 15.47 22.67 16.91C22.61 17.84 22.535 18.905 22.445 20.105C22.355 21.305 22.25 22.805 22.13 24.605C22.1 24.935 22.07 25.19 22.04 25.37C22.01 25.55 21.95 25.685 21.86 25.775C21.8 25.865 21.695 25.925 21.545 25.955C21.395 25.985 21.185 26 20.915 26H19.475C18.515 26 17.735 25.91 17.135 25.73C16.535 25.55 16.07 25.295 15.74 24.965C15.41 24.635 15.17 24.23 15.02 23.75C14.9 23.24 14.84 22.67 14.84 22.04C14.84 21.44 14.885 20.57 14.975 19.43C15.095 18.26 15.2 17.06 15.29 15.83C15.41 14.57 15.515 13.385 15.605 12.275C15.725 11.135 15.785 10.31 15.785 9.8C15.785 9.02 15.62 8.33 15.29 7.73C14.99 7.13 14.39 6.83 13.49 6.83C12.68 6.83 11.99 7.13 11.42 7.73C10.85 8.33 10.37 9.14 9.98 10.16C9.62 11.15 9.32 12.32 9.08 13.67C8.87 15.02 8.72 16.43 8.63 17.9ZM55.9855 12.005C55.8055 12.005 55.5955 12.005 55.3555 12.005C55.1455 11.975 54.9355 11.945 54.7255 11.915C54.5155 11.855 54.3355 11.795 54.1855 11.735C54.0355 11.645 53.9605 11.54 53.9605 11.42C53.9605 11.03 53.9755 10.67 54.0055 10.34C54.0355 10.01 54.0505 9.665 54.0505 9.305C54.0505 8.645 53.9605 8.105 53.7805 7.685C53.6005 7.265 53.2405 7.055 52.7005 7.055C51.8605 7.055 51.1555 7.61 50.5855 8.72C50.0455 9.8 49.7005 11.435 49.5505 13.625C49.4905 14.585 49.4005 15.68 49.2805 16.91C49.1905 18.11 49.1005 19.28 49.0105 20.42C48.9205 21.53 48.8455 22.52 48.7855 23.39C48.7255 24.26 48.6955 24.83 48.6955 25.1C48.6955 25.4 48.5905 25.625 48.3805 25.775C48.1705 25.925 47.9455 26 47.7055 26H46.0855C45.1555 26 44.3905 25.91 43.7905 25.73C43.2205 25.52 42.7555 25.235 42.3955 24.875C42.0655 24.515 41.8255 24.08 41.6755 23.57C41.5555 23.03 41.4955 22.415 41.4955 21.725C41.4955 21.275 41.5105 20.645 41.5405 19.835C41.6005 18.995 41.6905 17.855 41.8105 16.415C41.9305 14.945 42.0655 13.1 42.2155 10.88C42.3955 8.63 42.6055 5.855 42.8455 2.555C42.9055 1.685 43.2205 1.25 43.7905 1.25H45.5455C46.3855 1.25 47.0905 1.34 47.6605 1.52C48.2305 1.7 48.6955 1.955 49.0555 2.285C49.4155 2.585 49.6705 2.945 49.8205 3.365C50.0005 3.785 50.1205 4.22 50.1805 4.67C50.5405 3.98 50.9605 3.395 51.4405 2.915C51.9505 2.405 52.4755 2 53.0155 1.7C53.5555 1.37 54.1105 1.145 54.6805 1.025C55.2505 0.875 55.7755 0.8 56.2555 0.8C56.8255 0.8 57.3955 0.904999 57.9655 1.115C58.5655 1.325 59.1055 1.64 59.5855 2.06C60.0655 2.48 60.4405 3.02 60.7105 3.68C61.0105 4.34 61.1605 5.12 61.1605 6.02C61.1605 6.83 61.0405 7.595 60.8005 8.315C60.5605 9.035 60.2155 9.68 59.7655 10.25C59.3155 10.79 58.7605 11.225 58.1005 11.555C57.4705 11.855 56.7655 12.005 55.9855 12.005Z" fill="url(#paint0_linear)"/>
<defs>
<linearGradient id="paint0_linear" x1="-1" y1="8" x2="64" y2="8" gradientUnits="userSpaceOnUse">
<stop stop-color="#4891FF"/>
<stop offset="1" stop-color="#DA48FF"/>
</linearGradient>
</defs>
</svg>
