<svg width="141" height="35" viewBox="0 0 141 35" fill="none" xmlns="http://www.w3.org/2000/svg">
<path d="M8.63 25.9C8.54 27.28 8.435 28.6 8.315 29.86C8.195 31.09 8.105 32.17 8.045 33.1C8.015 33.46 7.94 33.7 7.82 33.82C7.7 33.94 7.445 34 7.055 34H5.435C4.505 34 3.74 33.91 3.14 33.73C2.57 33.52 2.105 33.235 1.745 32.875C1.415 32.515 1.175 32.08 1.025 31.57C0.905 31.03 0.845 30.415 0.845 29.725C0.845 29.275 0.86 28.645 0.89 27.835C0.95 26.995 1.04 25.855 1.16 24.415C1.28 22.945 1.415 21.1 1.565 18.88C1.745 16.63 1.955 13.855 2.195 10.555C2.225 9.895 2.3 9.505 2.42 9.385C2.51 9.295 2.75 9.25 3.14 9.25H4.895C5.795 9.25 6.53 9.355 7.1 9.565C7.67 9.775 8.135 10.045 8.495 10.375C8.855 10.705 9.11 11.095 9.26 11.545C9.41 11.995 9.5 12.46 9.53 12.94C10.4 11.32 11.39 10.225 12.5 9.655C13.61 9.085 14.915 8.8 16.415 8.8C17.225 8.8 18.005 8.875 18.755 9.025C19.505 9.175 20.18 9.43 20.78 9.79C21.38 10.15 21.89 10.63 22.31 11.23C22.73 11.8 23.03 12.535 23.21 13.435C24.14 11.695 25.16 10.495 26.27 9.835C27.38 9.145 28.775 8.8 30.455 8.8C31.385 8.8 32.27 8.905 33.11 9.115C33.98 9.295 34.73 9.625 35.36 10.105C35.99 10.585 36.485 11.245 36.845 12.085C37.235 12.895 37.43 13.915 37.43 15.145C37.43 16.075 37.385 17.215 37.295 18.565C37.205 19.915 37.1 21.385 36.98 22.975C36.86 24.535 36.725 26.155 36.575 27.835C36.425 29.485 36.305 31.075 36.215 32.605C36.185 32.935 36.155 33.19 36.125 33.37C36.095 33.55 36.035 33.685 35.945 33.775C35.885 33.865 35.78 33.925 35.63 33.955C35.48 33.985 35.27 34 35 34H33.56C32.6 34 31.82 33.91 31.22 33.73C30.62 33.55 30.155 33.295 29.825 32.965C29.495 32.635 29.255 32.23 29.105 31.75C28.985 31.24 28.925 30.67 28.925 30.04C28.925 29.65 28.94 29.095 28.97 28.375C29.03 27.655 29.09 26.875 29.15 26.035C29.24 25.195 29.315 24.325 29.375 23.425C29.465 22.525 29.54 21.7 29.6 20.95C29.69 20.17 29.75 19.495 29.78 18.925C29.84 18.355 29.87 17.98 29.87 17.8C29.87 17.02 29.705 16.33 29.375 15.73C29.075 15.13 28.475 14.83 27.575 14.83C26.795 14.83 26.12 15.085 25.55 15.595C24.98 16.105 24.5 16.81 24.11 17.71C23.72 18.61 23.405 19.675 23.165 20.905C22.925 22.135 22.76 23.47 22.67 24.91C22.61 25.84 22.535 26.905 22.445 28.105C22.355 29.305 22.25 30.805 22.13 32.605C22.1 32.935 22.07 33.19 22.04 33.37C22.01 33.55 21.95 33.685 21.86 33.775C21.8 33.865 21.695 33.925 21.545 33.955C21.395 33.985 21.185 34 20.915 34H19.475C18.515 34 17.735 33.91 17.135 33.73C16.535 33.55 16.07 33.295 15.74 32.965C15.41 32.635 15.17 32.23 15.02 31.75C14.9 31.24 14.84 30.67 14.84 30.04C14.84 29.44 14.885 28.57 14.975 27.43C15.095 26.26 15.2 25.06 15.29 23.83C15.41 22.57 15.515 21.385 15.605 20.275C15.725 19.135 15.785 18.31 15.785 17.8C15.785 17.02 15.62 16.33 15.29 15.73C14.99 15.13 14.39 14.83 13.49 14.83C12.68 14.83 11.99 15.13 11.42 15.73C10.85 16.33 10.37 17.14 9.98 18.16C9.62 19.15 9.32 20.32 9.08 21.67C8.87 23.02 8.72 24.43 8.63 25.9ZM55.9855 20.005C55.8055 20.005 55.5955 20.005 55.3555 20.005C55.1455 19.975 54.9355 19.945 54.7255 19.915C54.5155 19.855 54.3355 19.795 54.1855 19.735C54.0355 19.645 53.9605 19.54 53.9605 19.42C53.9605 19.03 53.9755 18.67 54.0055 18.34C54.0355 18.01 54.0505 17.665 54.0505 17.305C54.0505 16.645 53.9605 16.105 53.7805 15.685C53.6005 15.265 53.2405 15.055 52.7005 15.055C51.8605 15.055 51.1555 15.61 50.5855 16.72C50.0455 17.8 49.7005 19.435 49.5505 21.625C49.4905 22.585 49.4005 23.68 49.2805 24.91C49.1905 26.11 49.1005 27.28 49.0105 28.42C48.9205 29.53 48.8455 30.52 48.7855 31.39C48.7255 32.26 48.6955 32.83 48.6955 33.1C48.6955 33.4 48.5905 33.625 48.3805 33.775C48.1705 33.925 47.9455 34 47.7055 34H46.0855C45.1555 34 44.3905 33.91 43.7905 33.73C43.2205 33.52 42.7555 33.235 42.3955 32.875C42.0655 32.515 41.8255 32.08 41.6755 31.57C41.5555 31.03 41.4955 30.415 41.4955 29.725C41.4955 29.275 41.5105 28.645 41.5405 27.835C41.6005 26.995 41.6905 25.855 41.8105 24.415C41.9305 22.945 42.0655 21.1 42.2155 18.88C42.3955 16.63 42.6055 13.855 42.8455 10.555C42.9055 9.685 43.2205 9.25 43.7905 9.25H45.5455C46.3855 9.25 47.0905 9.34 47.6605 9.52C48.2305 9.7 48.6955 9.955 49.0555 10.285C49.4155 10.585 49.6705 10.945 49.8205 11.365C50.0005 11.785 50.1205 12.22 50.1805 12.67C50.5405 11.98 50.9605 11.395 51.4405 10.915C51.9505 10.405 52.4755 10 53.0155 9.7C53.5555 9.37 54.1105 9.145 54.6805 9.025C55.2505 8.875 55.7755 8.8 56.2555 8.8C56.8255 8.8 57.3955 8.905 57.9655 9.115C58.5655 9.325 59.1055 9.64 59.5855 10.06C60.0655 10.48 60.4405 11.02 60.7105 11.68C61.0105 12.34 61.1605 13.12 61.1605 14.02C61.1605 14.83 61.0405 15.595 60.8005 16.315C60.5605 17.035 60.2155 17.68 59.7655 18.25C59.3155 18.79 58.7605 19.225 58.1005 19.555C57.4705 19.855 56.7655 20.005 55.9855 20.005ZM68.1137 34C66.4337 34 65.2337 33.67 64.5137 33.01C63.7937 32.35 63.4337 31.405 63.4337 30.175C63.4337 29.575 63.4787 28.555 63.5687 27.115C63.6587 25.645 63.7787 23.98 63.9287 22.12C64.0787 20.26 64.2287 18.295 64.3787 16.225C64.5287 14.155 64.6787 12.205 64.8287 10.375C64.9787 8.545 65.0987 6.94 65.1887 5.56C65.2787 4.18 65.3237 3.235 65.3237 2.725C65.3237 2.275 65.5637 2.05 66.0437 2.05H68.5187C70.1987 2.05 71.3537 2.38 71.9837 3.04C72.6437 3.67 72.9737 4.615 72.9737 5.875C72.9737 6.025 72.9587 6.16 72.9287 6.28C72.9287 6.4 72.9287 6.535 72.9287 6.685L71.4437 27.7H79.5437C79.7237 27.7 79.8887 27.76 80.0387 27.88C80.1887 27.97 80.2637 28.12 80.2637 28.33L80.0837 30.985C80.0237 31.885 79.7687 32.62 79.3187 33.19C78.8987 33.73 78.0137 34 76.6637 34H68.1137ZM91.7496 13.075C91.7496 13.705 91.6896 14.59 91.5696 15.73C91.4796 16.87 91.3746 18.055 91.2546 19.285C91.1646 20.515 91.0596 21.67 90.9396 22.75C90.8496 23.83 90.8046 24.61 90.8046 25.09C90.8046 26.14 91.0596 26.965 91.5696 27.565C92.1096 28.135 92.8446 28.42 93.7746 28.42C94.5846 28.42 95.2596 28.105 95.7996 27.475C96.3696 26.815 96.8196 25.975 97.1496 24.955C97.5096 23.905 97.7946 22.72 98.0046 21.4C98.2146 20.08 98.3646 18.745 98.4546 17.395C98.5746 16.045 98.6646 14.74 98.7246 13.48C98.8146 12.19 98.9046 11.08 98.9946 10.15C99.0246 9.91 99.1146 9.7 99.2646 9.52C99.4146 9.34 99.6546 9.25 99.9846 9.25H101.605C102.535 9.25 103.285 9.355 103.855 9.565C104.455 9.745 104.92 10.015 105.25 10.375C105.61 10.735 105.85 11.185 105.97 11.725C106.12 12.235 106.195 12.835 106.195 13.525C106.195 13.975 106.165 14.62 106.105 15.46C106.075 16.27 106 17.41 105.88 18.88C105.76 20.32 105.61 22.165 105.43 24.415C105.28 26.635 105.085 29.395 104.845 32.695C104.785 33.325 104.71 33.7 104.62 33.82C104.56 33.94 104.32 34 103.9 34H102.145C101.245 34 100.495 33.895 99.8946 33.685C99.3246 33.475 98.8596 33.205 98.4996 32.875C98.1396 32.545 97.8846 32.155 97.7346 31.705C97.5846 31.255 97.4946 30.79 97.4646 30.31C97.0146 31.09 96.5046 31.75 95.9346 32.29C95.3946 32.83 94.8246 33.265 94.2246 33.595C93.6246 33.895 93.0096 34.105 92.3796 34.225C91.7496 34.375 91.1346 34.45 90.5346 34.45C89.3946 34.45 88.3746 34.27 87.4746 33.91C86.5746 33.52 85.8096 33.01 85.1796 32.38C84.5796 31.75 84.1146 31 83.7846 30.13C83.4546 29.26 83.2896 28.33 83.2896 27.34C83.2896 26.95 83.3046 26.32 83.3346 25.45C83.3946 24.55 83.4546 23.545 83.5146 22.435C83.6046 21.325 83.6946 20.155 83.7846 18.925C83.8746 17.665 83.9496 16.48 84.0096 15.37C84.0996 14.26 84.1746 13.285 84.2346 12.445C84.3246 11.605 84.3846 11.005 84.4146 10.645C84.4746 10.105 84.5946 9.745 84.7746 9.565C84.9546 9.355 85.2546 9.25 85.6746 9.25H87.1146C88.0446 9.25 88.8096 9.34 89.4096 9.52C90.0096 9.7 90.4746 9.955 90.8046 10.285C91.1646 10.615 91.4046 11.02 91.5246 11.5C91.6746 11.95 91.7496 12.475 91.7496 13.075ZM114.772 34C113.842 34 113.077 33.91 112.477 33.73C111.907 33.52 111.442 33.235 111.082 32.875C110.752 32.515 110.512 32.08 110.362 31.57C110.242 31.03 110.182 30.415 110.182 29.725C110.182 29.275 110.197 28.645 110.227 27.835C110.287 26.995 110.377 25.855 110.497 24.415C110.617 22.945 110.752 21.1 110.902 18.88C111.082 16.63 111.292 13.855 111.532 10.555C111.562 9.895 111.637 9.505 111.757 9.385C111.847 9.295 112.087 9.25 112.477 9.25H114.232C115.162 9.25 115.912 9.34 116.482 9.52C117.082 9.7 117.547 9.97 117.877 10.33C118.237 10.69 118.477 11.125 118.597 11.635C118.747 12.145 118.822 12.715 118.822 13.345C118.822 13.795 118.792 14.47 118.732 15.37C118.672 16.27 118.582 17.5 118.462 19.06C118.372 20.59 118.237 22.51 118.057 24.82C117.877 27.1 117.652 29.86 117.382 33.1C117.352 33.46 117.277 33.7 117.157 33.82C117.037 33.94 116.782 34 116.392 34H114.772ZM111.577 3.94C111.577 2.74 112.012 1.795 112.882 1.105C113.752 0.415 114.922 0.0699996 116.392 0.0699996C117.682 0.0699996 118.612 0.339999 119.182 0.879997C119.782 1.39 120.082 2.08 120.082 2.95C120.082 4.06 119.662 4.99 118.822 5.74C118.012 6.46 116.812 6.82 115.222 6.82C112.792 6.82 111.577 5.86 111.577 3.94ZM133.278 8.8C135.828 8.8 137.703 9.31 138.903 10.33C140.103 11.32 140.703 12.595 140.703 14.155C140.703 15.475 140.283 16.48 139.443 17.17C138.633 17.86 137.448 18.205 135.888 18.205C135.468 18.205 135.183 18.16 135.033 18.07C134.883 17.98 134.808 17.815 134.808 17.575C134.808 17.305 134.778 17.005 134.718 16.675C134.688 16.315 134.583 15.985 134.403 15.685C134.253 15.355 133.998 15.085 133.638 14.875C133.308 14.665 132.828 14.56 132.198 14.56C131.358 14.56 130.683 14.77 130.173 15.19C129.663 15.58 129.408 16.075 129.408 16.675C129.408 17.305 129.663 17.815 130.173 18.205C130.713 18.565 131.373 18.91 132.153 19.24C132.963 19.57 133.833 19.915 134.763 20.275C135.693 20.605 136.548 21.055 137.328 21.625C138.138 22.195 138.798 22.915 139.308 23.785C139.848 24.625 140.118 25.72 140.118 27.07C140.118 29.23 139.353 31 137.823 32.38C136.293 33.76 133.998 34.45 130.938 34.45C130.098 34.45 129.123 34.375 128.013 34.225C126.933 34.105 125.898 33.91 124.908 33.64C123.918 33.34 123.078 32.95 122.388 32.47C121.728 31.99 121.398 31.39 121.398 30.67C121.398 30.4 121.443 30.07 121.533 29.68C121.653 29.29 121.818 28.915 122.028 28.555C122.268 28.195 122.538 27.895 122.838 27.655C123.168 27.385 123.558 27.25 124.008 27.25C124.368 27.25 124.698 27.34 124.998 27.52C125.298 27.7 125.643 27.895 126.033 28.105C126.453 28.285 126.963 28.465 127.563 28.645C128.163 28.825 128.958 28.915 129.948 28.915C130.698 28.915 131.358 28.825 131.928 28.645C132.528 28.465 132.828 28.06 132.828 27.43C132.828 26.86 132.588 26.41 132.108 26.08C131.628 25.72 131.013 25.39 130.263 25.09C129.543 24.79 128.748 24.475 127.878 24.145C127.038 23.785 126.243 23.32 125.493 22.75C124.773 22.18 124.173 21.46 123.693 20.59C123.213 19.69 122.973 18.535 122.973 17.125C122.973 15.595 123.273 14.305 123.873 13.255C124.503 12.175 125.298 11.305 126.258 10.645C127.248 9.985 128.358 9.52 129.588 9.25C130.818 8.95 132.048 8.8 133.278 8.8Z" fill="url(#paint0_linear)"/>
<defs>
<linearGradient id="paint0_linear" x1="-1" y1="16" x2="144" y2="16" gradientUnits="userSpaceOnUse">
<stop stop-color="#4891FF"/>
<stop offset="1" stop-color="#DA48FF"/>
</linearGradient>
</defs>
</svg>
