<svg width="25" height="25" viewBox="0 0 25 25" fill="none" xmlns="http://www.w3.org/2000/svg">
<path d="M15.8648 12.5012L24.2738 4.08981C24.501 3.87038 24.6822 3.60789 24.8069 3.31767C24.9315 3.02745 24.9972 2.71531 24.9999 2.39945C25.0027 2.0836 24.9425 1.77036 24.8229 1.47802C24.7033 1.18568 24.5266 0.920079 24.3033 0.696729C24.0799 0.473379 23.8143 0.296746 23.522 0.177139C23.2296 0.0575319 22.9164 -0.00265486 22.6005 8.98158e-05C22.2847 0.00283449 21.9726 0.0684563 21.6823 0.193126C21.3921 0.317796 21.1296 0.499016 20.9102 0.726214L12.4988 9.13521L4.08981 0.726214C3.87038 0.499016 3.60789 0.317796 3.31767 0.193126C3.02745 0.0684563 2.71531 0.00283449 2.39945 8.98158e-05C2.0836 -0.00265486 1.77036 0.0575319 1.47802 0.177139C1.18568 0.296746 0.920079 0.473379 0.696729 0.696729C0.473379 0.920079 0.296746 1.18568 0.177139 1.47802C0.0575319 1.77036 -0.00265486 2.0836 8.98158e-05 2.39945C0.00283449 2.71531 0.0684563 3.02745 0.193126 3.31767C0.317796 3.60789 0.499016 3.87038 0.726214 4.08981L9.13521 12.4988L0.726214 20.9102C0.499016 21.1296 0.317796 21.3921 0.193126 21.6823C0.0684563 21.9726 0.00283449 22.2847 8.98158e-05 22.6005C-0.00265486 22.9164 0.0575319 23.2296 0.177139 23.522C0.296746 23.8143 0.473379 24.0799 0.696729 24.3033C0.920079 24.5266 1.18568 24.7033 1.47802 24.8229C1.77036 24.9425 2.0836 25.0027 2.39945 24.9999C2.71531 24.9972 3.02745 24.9315 3.31767 24.8069C3.60789 24.6822 3.87038 24.501 4.08981 24.2738L12.4988 15.8648L20.9102 24.2738C21.1296 24.501 21.3921 24.6822 21.6823 24.8069C21.9726 24.9315 22.2847 24.9972 22.6005 24.9999C22.9164 25.0027 23.2296 24.9425 23.522 24.8229C23.8143 24.7033 24.0799 24.5266 24.3033 24.3033C24.5266 24.0799 24.7033 23.8143 24.8229 23.522C24.9425 23.2296 25.0027 22.9164 24.9999 22.6005C24.9972 22.2847 24.9315 21.9726 24.8069 21.6823C24.6822 21.3921 24.501 21.1296 24.2738 20.9102L15.8648 12.4988V12.5012Z" fill="white"/>
</svg>
