<svg width="276" height="175" viewBox="0 0 276 175" fill="none" xmlns="http://www.w3.org/2000/svg">
<g opacity="0.3">
<path d="M228.828 3.26884L228.213 3.66507C223.054 7.09242 220.074 13.0517 220.669 19.209C220.741 20.0011 220.872 20.7866 221.061 21.5587C221.789 24.3575 223.189 26.9308 225.137 29.0496C227.085 31.1684 229.52 32.767 232.226 33.703C235.421 34.7847 239.066 34.9947 241.649 37.166C245.008 39.9911 245.279 44.9756 245.29 49.3698C245.302 53.7639 245.584 58.7485 248.955 61.5577C251.069 63.3209 254.001 63.8004 256.745 63.5388C264 62.9009 270.33 57.5479 273.34 50.919C276.351 44.2902 276.386 36.5994 274.726 29.5228C272.401 19.6171 266.615 10.2781 257.978 4.85375C249.342 -0.570594 237.789 -1.61663 228.828 3.26884Z" fill="#FBFBFB"/>
<path d="M2.1558 40.7164L2.46117 41.3305C3.85968 44.2383 6.12051 46.6314 8.92794 48.1757C11.7354 49.72 14.9492 50.3384 18.1207 49.9445C20.7598 49.5826 23.2699 48.5674 25.4286 46.9888C27.5872 45.4102 29.3277 43.317 30.4957 40.8947C31.8385 38.0418 32.4297 34.6739 34.7042 32.5105C37.6717 29.6973 42.2795 29.9945 46.3158 30.466C50.3521 30.9375 54.9638 31.2228 57.9156 28.3977C59.7635 26.6265 60.5269 23.9481 60.6052 21.3726C60.8087 14.5535 56.5846 8.08315 50.8179 4.55277C45.0513 1.02239 37.9967 0.150692 31.3022 0.915409C21.9221 1.98126 12.7299 6.33975 6.80278 13.7809C0.875634 21.222 -1.35586 31.8448 2.1558 40.7164Z" fill="#FBFBFB"/>
<path d="M261.734 96.6794C267.244 93.3488 269.042 86.1287 265.751 80.5528C262.461 74.9769 255.327 73.1566 249.818 76.4871C244.308 79.8177 242.51 87.0378 245.801 92.6137C249.091 98.1896 256.225 100.01 261.734 96.6794Z" fill="#FBFBFB"/>
<path d="M85.7192 30.9453C92.1364 30.9453 97.3386 25.6802 97.3386 19.1853C97.3386 12.6904 92.1364 7.42529 85.7192 7.42529C79.302 7.42529 74.0998 12.6904 74.0998 19.1853C74.0998 25.6802 79.302 30.9453 85.7192 30.9453Z" fill="#FBFBFB"/>
</g>
<path d="M41.4848 89.1234L19.444 93.9851C19.0818 94.065 18.7076 94.0719 18.3427 94.0054C17.9779 93.9389 17.6296 93.8004 17.3177 93.5976C17.0058 93.3949 16.7364 93.132 16.5249 92.8239C16.3134 92.5158 16.1639 92.1685 16.085 91.8019L9.42966 60.9359C9.35163 60.5674 9.34629 60.187 9.41394 59.8164C9.4816 59.4459 9.62092 59.0925 9.82391 58.7766C10.0269 58.4607 10.2895 58.1885 10.5968 57.9757C10.904 57.7628 11.2498 57.6135 11.6142 57.5363L25.5903 54.4536L38.8383 63.3529L43.6537 85.7278C43.7329 86.0949 43.7396 86.4744 43.6734 86.8442C43.6071 87.214 43.4692 87.5669 43.2676 87.8825C43.066 88.1982 42.8047 88.4703 42.4987 88.6833C42.1928 88.8963 41.8482 89.0458 41.4848 89.1234Z" fill="#2A7DE1"/>
<g opacity="0.2">
<path opacity="0.2" d="M14.3152 83.533L41.8645 77.4973L43.5734 85.3728C43.7563 86.2155 43.6007 87.0962 43.1409 87.8211C42.681 88.5461 41.9546 89.0559 41.1215 89.2384L19.809 93.9077C18.9881 94.0875 18.1291 93.9302 17.4212 93.4702C16.7133 93.0102 16.2144 92.2853 16.0342 91.455L14.3152 83.533Z" fill="black"/>
</g>
<path d="M25.6099 88.5131L26.1228 87.5186C26.2642 87.6732 26.441 87.7902 26.6376 87.8593C26.8342 87.9284 27.0447 87.9474 27.2503 87.9148C27.7514 87.8038 27.9471 87.4433 27.8179 86.841L27.2738 84.2299L25.379 84.6499L25.1597 83.6355L28.2916 82.9421L29.0511 86.4844C29.3447 87.8316 28.8162 88.6399 27.5439 88.9212C27.2124 89.0098 26.865 89.0191 26.5293 88.9483C26.1936 88.8774 25.8789 88.7284 25.6099 88.5131Z" fill="#FAFAFA"/>
<path d="M30.1199 87.8473L30.3313 86.8845C30.8236 87.0499 31.3505 87.08 31.8581 86.9717C32.414 86.8489 32.5902 86.6547 32.5393 86.4209C32.3905 85.7355 30.0416 86.9915 29.6775 85.3155C29.5091 84.523 30.0964 83.8019 31.3061 83.5325C31.8552 83.3967 32.4286 83.3967 32.9777 83.5325L32.7624 84.4874C32.3536 84.3603 31.9189 84.3439 31.5018 84.4398C30.9616 84.5587 30.7697 84.7806 30.8167 84.9985C30.9694 85.7157 33.3262 84.4675 33.6824 86.1238C33.8469 86.9162 33.2518 87.6136 32.0108 87.887C31.3879 88.0418 30.7358 88.0282 30.1199 87.8473Z" fill="#FAFAFA"/>
<path d="M18.8959 76.4442L19.5379 75.2277C19.849 75.5538 20.2362 75.7952 20.6639 75.9296C21.0916 76.0639 21.5459 76.0869 21.9847 75.9964C23.1592 75.7389 23.6133 74.8791 23.308 73.4645L22.0356 67.541L18.2695 68.3691L17.9876 67.0576L23.2297 65.9045L24.7682 73.0644C25.2732 75.414 24.3767 76.8245 22.2627 77.2961C21.6752 77.4401 21.0621 77.4378 20.4757 77.2894C19.8893 77.1411 19.3472 76.851 18.8959 76.4442Z" fill="#FAFAFA"/>
<path d="M27.1485 75.2039L27.5008 73.928C28.4416 74.2894 29.466 74.3651 30.4487 74.1459C31.7719 73.8527 32.2378 73.3258 32.089 72.6482C31.6976 70.8533 27.0506 73.508 26.3655 70.3263C26.0562 68.8959 27.1132 67.6518 29.1411 67.2041C30.1413 66.9642 31.1862 66.9943 32.1713 67.2912L31.8072 68.575C31.0321 68.2924 30.1921 68.2469 29.3917 68.4442C28.1389 68.7176 27.63 69.3199 27.767 69.9539C28.1585 71.8399 32.8564 69.1971 33.5141 72.3035C33.8273 73.7497 32.7311 74.9582 30.6131 75.4218C29.3016 75.711 27.9197 75.5882 27.1485 75.2039Z" fill="#FAFAFA"/>
<g opacity="0.3">
<path opacity="0.3" d="M25.5747 54.4536L27.446 63.1429C27.5193 63.4846 27.6585 63.8084 27.8558 64.0955C28.0531 64.3826 28.3044 64.6275 28.5954 64.816C28.8865 65.0045 29.2114 65.1329 29.5516 65.194C29.8919 65.255 30.2406 65.2474 30.5779 65.1716L38.8344 63.3529L25.5747 54.4536Z" fill="white"/>
</g>
<g opacity="0.2">
<path opacity="0.2" d="M27.72 63.8798C27.72 63.8798 28.0645 66.0115 30.5857 66.1818H30.8715C31.9912 66.1383 39.359 65.853 39.3238 65.6866C39.2885 65.5201 38.8227 63.3528 38.8227 63.3528L30.5662 65.1715C30.5662 65.1715 28.4913 65.5558 27.72 63.8798Z" fill="black"/>
</g>
<path d="M254.819 58.4078L229.603 55.3411C228.769 55.2379 228.009 54.805 227.489 54.137C226.969 53.4689 226.732 52.6199 226.828 51.775L231.024 16.4514C231.125 15.6068 231.553 14.8371 232.213 14.3106C232.873 13.7842 233.713 13.5438 234.548 13.6422L250.54 15.5877L261.384 29.9945L258.342 55.5986C258.242 56.4432 257.814 57.2129 257.154 57.7394C256.494 58.2659 255.654 58.5062 254.819 58.4078Z" fill="#2A7DE1"/>
<g opacity="0.2">
<path opacity="0.2" d="M227.947 42.3147L259.473 46.1534L258.391 55.2604C258.279 56.1994 257.803 57.055 257.068 57.6391C256.333 58.2232 255.399 58.4879 254.472 58.3749L230.004 55.3957C229.061 55.2808 228.201 54.7915 227.614 54.0352C227.028 53.279 226.762 52.3178 226.875 51.3631L227.951 42.3152L227.947 42.3147Z" fill="black"/>
</g>
<g opacity="0.2">
<path opacity="0.2" d="M250.552 15.5757L249.377 25.517C249.284 26.3046 249.503 27.0977 249.986 27.7219C250.47 28.346 251.179 28.7502 251.957 28.8453L261.384 29.9944L250.552 15.5757Z" fill="white"/>
</g>
<g opacity="0.2">
<path opacity="0.2" d="M249.397 26.4048C249.397 26.4048 249.006 28.7821 251.601 29.9233C251.7 29.9667 251.802 30.0038 251.906 30.0342C253.112 30.4067 261.056 32.8554 261.079 32.6691C261.103 32.4829 261.396 29.9946 261.396 29.9946L251.95 28.8455C251.95 28.8455 249.601 28.477 249.397 26.4048Z" fill="black"/>
</g>
<path d="M236.329 48.9142C236.509 47.4165 237.77 46.4853 239.297 46.6716C239.679 46.7014 240.049 46.818 240.381 47.0128C240.712 47.2077 240.996 47.4757 241.211 47.7968L240.401 48.3872C240.272 48.1836 240.099 48.0119 239.896 47.885C239.693 47.7581 239.464 47.6792 239.226 47.6542C238.811 47.6017 238.392 47.7182 238.061 47.9783C237.731 48.2384 237.516 48.6207 237.464 49.041C237.412 49.4613 237.528 49.8853 237.785 50.2197C238.042 50.5541 238.419 50.7715 238.835 50.824C239.071 50.8558 239.311 50.8328 239.537 50.7566C239.763 50.6804 239.968 50.553 240.138 50.3842L240.784 51.1529C240.38 51.4968 239.885 51.7137 239.361 51.7772C238.837 51.8407 238.305 51.7479 237.832 51.5102C237.359 51.2725 236.965 50.9003 236.698 50.4391C236.431 49.978 236.303 49.448 236.329 48.9142Z" fill="#FAFAFA"/>
<path d="M241.097 51.5095L241.587 50.6933C242.026 51.0849 242.572 51.3335 243.153 51.4065C243.826 51.4897 244.128 51.2956 244.163 50.9905C244.272 50.0633 241.348 50.3526 241.567 48.5101C241.665 47.6661 242.421 47.048 243.814 47.2144C244.413 47.2745 244.985 47.4992 245.466 47.8643L245.012 48.6924C244.63 48.3952 244.178 48.204 243.701 48.1376C243.027 48.0544 242.738 48.2803 242.699 48.5893C242.593 49.5046 245.517 49.2194 245.302 51.042C245.2 51.8701 244.437 52.5001 243.039 52.3258C242.325 52.2601 241.647 51.9753 241.097 51.5095Z" fill="#FAFAFA"/>
<path d="M245.564 52.0603L246.054 51.2401C246.492 51.6334 247.038 51.8822 247.62 51.9533C248.293 52.0365 248.594 51.8424 248.63 51.5373C248.739 50.6101 245.815 50.8993 246.034 49.0569C246.132 48.2129 246.888 47.5948 248.281 47.7652C248.88 47.8221 249.452 48.0456 249.933 48.411L249.479 49.2391C249.095 48.9425 248.642 48.7514 248.164 48.6844C247.494 48.6012 247.205 48.8271 247.166 49.1361C247.06 50.0514 249.984 49.7701 249.769 51.5888C249.667 52.4209 248.904 53.0469 247.506 52.8765C246.792 52.8108 246.114 52.526 245.564 52.0603Z" fill="#FAFAFA"/>
<path d="M239.853 33.0493C240.35 33.2712 240.549 33.6318 240.455 34.4163L240.236 36.2389C240.208 36.3508 240.206 36.4676 240.229 36.5806C240.252 36.6935 240.301 36.7996 240.371 36.8908C240.44 36.9821 240.53 37.056 240.632 37.1072C240.734 37.1583 240.846 37.1852 240.96 37.1859L241.164 37.2097L240.996 38.6004L240.346 38.5212C238.936 38.3469 238.302 37.5306 238.459 36.2191L238.702 34.1587C238.721 34.0902 238.724 34.0181 238.711 33.948C238.699 33.8779 238.671 33.8116 238.629 33.754C238.588 33.6964 238.534 33.6491 238.472 33.6156C238.41 33.582 238.341 33.5632 238.271 33.5604L237.899 33.5169L238.063 32.1261L238.455 32.1697C238.524 32.1841 238.595 32.1825 238.663 32.1651C238.731 32.1477 238.795 32.1148 238.849 32.0691C238.902 32.0234 238.945 31.9659 238.974 31.9009C239.003 31.836 239.017 31.7653 239.015 31.6942L239.261 29.6299C239.414 28.3184 240.224 27.6804 241.63 27.8508L242.284 27.9301L242.08 29.3208L241.876 29.2971C241.766 29.2698 241.651 29.2685 241.541 29.2932C241.43 29.3179 241.326 29.3679 241.237 29.4394C241.148 29.5109 241.077 29.602 241.028 29.7058C240.98 29.8095 240.955 29.9232 240.956 30.038L240.737 31.8646C240.635 32.6491 240.369 32.9503 239.853 33.0493Z" fill="#FAFAFA"/>
<path d="M252.055 33.83L251.891 35.2207L251.499 35.1771C251.198 35.1375 250.986 35.2881 250.943 35.6526L250.697 37.713C250.54 39.0245 249.734 39.6664 248.324 39.496L247.671 39.4168L247.839 38.026L248.039 38.0498C248.149 38.0777 248.264 38.0796 248.376 38.0552C248.487 38.0309 248.591 37.981 248.681 37.9094C248.77 37.8378 248.842 37.7465 248.891 37.6423C248.939 37.5382 248.964 37.4241 248.962 37.3089L249.178 35.4822C249.272 34.6898 249.569 34.3966 250.086 34.2936C249.585 34.0717 249.389 33.7111 249.483 32.9266L249.698 31.1C249.727 30.9886 249.73 30.872 249.708 30.7592C249.685 30.6464 249.637 30.5404 249.567 30.4493C249.498 30.3583 249.408 30.2845 249.306 30.2339C249.204 30.1832 249.092 30.1569 248.978 30.157L248.775 30.1332L248.939 28.7424L249.593 28.8217C251.002 28.9921 251.636 29.8122 251.48 31.1198L251.233 33.1841C251.215 33.2527 251.212 33.3245 251.225 33.3943C251.238 33.4641 251.266 33.5301 251.307 33.5875C251.348 33.6449 251.402 33.6922 251.464 33.7259C251.525 33.7596 251.594 33.779 251.664 33.7824L252.055 33.83Z" fill="#FAFAFA"/>
<path d="M244.648 157.215C240.389 154.881 235.597 150.637 233.734 145.819C238.469 148.357 242.29 152.345 244.648 157.215Z" fill="#263238"/>
<path d="M244.37 149.984C240.111 147.654 235.319 143.41 233.456 138.588C238.191 141.125 242.012 145.114 244.37 149.984Z" fill="#263238"/>
<path d="M243.736 142.915C239.461 140.585 234.681 136.342 232.806 131.52C237.541 134.058 241.363 138.046 243.724 142.915" fill="#263238"/>
<path d="M242.804 135.51C238.85 132.593 234.583 127.704 233.311 122.66C237.709 125.85 241.025 130.338 242.804 135.51Z" fill="#263238"/>
<path d="M241.602 129.764C238.925 125.433 236.642 119.149 237.163 113.943C240.145 118.661 241.689 124.164 241.602 129.764Z" fill="#263238"/>
<path d="M242.201 132.49C243.329 127.086 246.069 120.417 250.031 116.661C248.871 122.552 246.166 128.02 242.201 132.49Z" fill="#263238"/>
<path d="M243.086 138.604C244.695 133.077 248.093 126.372 252.509 122.806C250.83 128.835 247.575 134.292 243.086 138.604Z" fill="#263238"/>
<path d="M244.053 146.049C245.666 140.502 249.064 133.818 253.48 130.252C251.798 136.28 248.542 141.737 244.053 146.049Z" fill="#263238"/>
<path d="M244.55 155.123C246.163 149.595 249.558 142.891 253.973 139.325C252.294 145.353 249.039 150.811 244.55 155.123Z" fill="#263238"/>
<path d="M241.493 128.675C241.506 128.702 241.515 128.731 241.52 128.762L241.579 129.023C241.634 129.265 241.704 129.602 241.798 130.026C241.986 130.897 242.233 132.165 242.511 133.734C242.789 135.303 243.09 137.182 243.384 139.282C243.677 141.382 243.94 143.676 244.167 146.101C244.394 148.526 244.531 150.855 244.629 152.951C244.727 155.047 244.762 156.961 244.77 158.554C244.777 160.147 244.77 161.442 244.734 162.334C244.734 162.77 244.711 163.126 244.703 163.36V163.63C244.708 163.66 244.708 163.691 244.703 163.721C244.703 163.721 244.703 163.689 244.703 163.63C244.703 163.57 244.703 163.471 244.703 163.36V162.334C244.703 161.442 244.703 160.151 244.68 158.558C244.656 156.965 244.601 155.063 244.503 152.959C244.405 150.855 244.245 148.541 244.026 146.116C243.807 143.692 243.536 141.393 243.262 139.301C242.988 137.209 242.695 135.339 242.428 133.754C242.162 132.169 241.939 130.909 241.771 130.034C241.692 129.606 241.63 129.269 241.587 129.023C241.567 128.916 241.552 128.829 241.544 128.762C241.521 128.736 241.504 128.707 241.493 128.675Z" fill="#263238"/>
<path d="M246.508 159.081C244.527 154.877 243.082 148.965 244.057 144.349C246.275 148.913 247.127 154.034 246.508 159.081Z" fill="#455A64"/>
<path d="M249.82 153.637C247.839 149.433 246.394 143.521 247.369 138.905C249.587 143.469 250.439 148.589 249.82 153.637Z" fill="#455A64"/>
<path d="M252.772 148.102C250.787 143.898 249.346 137.986 250.321 133.37C252.537 137.934 253.389 143.054 252.772 148.102Z" fill="#455A64"/>
<path d="M255.696 142.13C254.22 137.681 253.48 131.615 254.987 127.173C256.65 131.984 256.896 137.18 255.696 142.13Z" fill="#455A64"/>
<path d="M257.595 137.241C257.74 132.506 259.114 126.575 262.019 123.08C261.953 128.138 260.415 133.064 257.595 137.241Z" fill="#455A64"/>
<path d="M256.714 139.591C260.155 136.302 265.389 133.041 270.091 132.613C266.412 136.227 261.757 138.655 256.714 139.591Z" fill="#455A64"/>
<path d="M254.396 144.567C258.253 141.477 263.98 138.572 268.932 138.56C264.784 141.979 259.723 144.07 254.396 144.567Z" fill="#455A64"/>
<path d="M251.495 150.566C255.352 147.472 261.079 144.567 266.035 144.555C261.885 147.975 256.824 150.067 251.495 150.566Z" fill="#455A64"/>
<path d="M247.455 157.492C251.311 154.397 257.043 151.493 261.995 151.485C257.843 154.901 252.783 156.991 247.455 157.492Z" fill="#455A64"/>
<path d="M258.045 136.381L258.022 136.46L257.943 136.682C257.861 136.892 257.755 137.174 257.618 137.534C257.336 138.275 256.91 139.333 256.358 140.637C255.258 143.24 253.617 146.79 251.601 150.594C250.583 152.496 249.569 154.279 248.614 155.883C247.659 157.488 246.762 158.911 245.987 160.087C245.212 161.264 244.57 162.211 244.112 162.861L243.587 163.602L243.446 163.788C243.43 163.811 243.412 163.832 243.392 163.851C243.402 163.826 243.415 163.802 243.431 163.78L243.556 163.578C243.681 163.396 243.846 163.142 244.057 162.821C244.499 162.168 245.122 161.217 245.881 160.028C246.641 158.839 247.526 157.413 248.477 155.808C249.428 154.203 250.434 152.416 251.448 150.518C253.469 146.719 255.117 143.18 256.244 140.593C256.808 139.297 257.258 138.247 257.556 137.514L257.908 136.678L258.006 136.46C258.015 136.432 258.028 136.405 258.045 136.381Z" fill="#263238"/>
<path d="M255.97 159.588H236.259V163.436H238.287L239.989 174.399H252.173L253.927 163.436H255.97V159.588Z" fill="#2A7DE1"/>
<path d="M255.97 163.352C255.97 163.301 251.589 163.261 246.183 163.261C240.776 163.261 236.396 163.301 236.396 163.352C236.396 163.404 240.772 163.447 246.183 163.447C251.593 163.447 255.97 163.404 255.97 163.352Z" fill="#263238"/>
<path d="M226.867 173.412H48.3476C45.4742 173.412 42.7183 172.258 40.6851 170.203C38.6519 168.149 37.5075 165.361 37.5034 162.453V44.6785C37.5034 42.485 38.364 40.3813 39.8962 38.8298C41.4283 37.2784 43.5065 36.4063 45.6737 36.4053H229.932C231.995 36.4053 233.974 37.2348 235.433 38.7112C236.891 40.1877 237.711 42.1902 237.711 44.2783V162.453C237.707 165.361 236.562 168.149 234.529 170.203C232.496 172.258 229.74 173.412 226.867 173.412Z" fill="#EBEBEB"/>
<path d="M226.867 173.413L227.293 173.385C227.715 173.371 228.135 173.328 228.55 173.254C230.187 172.994 231.743 172.354 233.095 171.384C234.094 170.675 234.964 169.797 235.667 168.789C236.521 167.576 237.122 166.199 237.433 164.743C237.511 164.347 237.562 163.951 237.625 163.531C237.688 163.111 237.676 162.687 237.676 162.255V159.556C237.676 157.707 237.676 155.726 237.676 153.613C237.676 136.841 237.676 112.568 237.641 82.5776C237.641 75.081 237.641 67.2357 237.641 59.0417C237.641 54.9474 237.641 50.7738 237.641 46.521V44.9361C237.651 44.407 237.63 43.8777 237.578 43.3512C237.451 42.2899 237.107 41.267 236.568 40.3478C236.023 39.4139 235.293 38.6048 234.423 37.9718C233.552 37.3388 232.562 36.8958 231.514 36.6708C230.461 36.4331 229.361 36.5281 228.26 36.5083H175.907H48.4455H46.3276C45.9752 36.5083 45.6229 36.5083 45.2744 36.5083C44.9262 36.5223 44.5795 36.562 44.237 36.6272C42.8653 36.8765 41.5811 37.4824 40.5105 38.3854C39.4398 39.2884 38.6194 40.4575 38.1298 41.7781C37.8877 42.4332 37.726 43.1159 37.6482 43.8108C37.5973 44.5042 37.6013 45.2134 37.6052 45.9227V62.7544C37.6052 73.8989 37.6052 84.8717 37.6052 95.6729C37.6052 117.251 37.6052 138.069 37.6052 157.88V161.585C37.6052 161.894 37.6052 162.203 37.6052 162.508L37.6521 163.42C37.7112 164.025 37.8199 164.624 37.9771 165.211C38.5822 167.564 39.9634 169.637 41.892 171.087C42.8373 171.811 43.896 172.369 45.0239 172.739C46.1442 173.093 47.3109 173.275 48.4847 173.278H82.4738H130.944L226.859 173.353L130.944 173.424H82.4738H48.4729C47.278 173.422 46.0903 173.237 44.9495 172.878C43.8073 172.5 42.7355 171.933 41.7784 171.198C40.8118 170.462 39.9696 169.572 39.2847 168.563C38.6048 167.54 38.098 166.41 37.7853 165.219C37.6254 164.621 37.5142 164.012 37.4525 163.396L37.4094 162.469C37.4094 162.16 37.4094 161.855 37.4094 161.546V157.841C37.4094 138.01 37.4094 117.196 37.4094 95.6332V45.9623C37.4094 45.2531 37.4094 44.5478 37.4525 43.8306C37.5299 43.1177 37.6957 42.4175 37.9458 41.7465C38.4454 40.3901 39.2859 39.1891 40.3845 38.2621C41.483 37.3351 42.8014 36.7143 44.2096 36.4608C44.5609 36.3921 44.9169 36.351 45.2744 36.338C45.6307 36.3142 45.983 36.338 46.3354 36.338H48.4533H175.914H228.257C229.349 36.3617 230.461 36.2627 231.545 36.5083C233.152 36.851 234.612 37.6933 235.723 38.9173C236.833 40.1414 237.538 41.686 237.738 43.3353C237.79 43.8712 237.811 44.4096 237.801 44.948V46.5329C237.801 50.7883 237.801 54.9619 237.801 59.0536C237.801 67.2423 237.801 75.0876 237.801 82.5895C237.801 112.58 237.778 136.873 237.77 153.625C237.77 155.722 237.77 157.703 237.77 159.568C237.77 160.496 237.77 161.395 237.77 162.267C237.77 162.699 237.731 163.126 237.715 163.546C237.699 163.966 237.601 164.371 237.523 164.767C237.205 166.23 236.598 167.613 235.738 168.832C234.899 170.02 233.834 171.027 232.605 171.791C231.376 172.556 230.008 173.064 228.582 173.286C228.165 173.359 227.744 173.398 227.321 173.405L226.867 173.413Z" fill="#263238"/>
<path d="M233.895 174.399H38.9643C36.0498 174.399 33.2547 173.227 31.1938 171.142C29.1329 169.056 27.9752 166.227 27.9752 163.277H244.884C244.884 166.227 243.726 169.056 241.665 171.142C239.604 173.227 236.809 174.399 233.895 174.399Z" fill="#EBEBEB"/>
<path d="M233.894 174.399H234.184L235.045 174.348C236.164 174.212 237.259 173.914 238.294 173.464C239.052 173.121 239.769 172.693 240.432 172.188C241.238 171.588 241.955 170.874 242.562 170.068C243.283 169.137 243.844 168.09 244.222 166.97C244.269 166.819 244.335 166.673 244.374 166.518L244.492 166.051C244.535 165.892 244.574 165.734 244.613 165.571C244.652 165.409 244.664 165.242 244.691 165.08C244.753 164.744 244.791 164.403 244.805 164.061C244.805 163.891 244.824 163.717 244.832 163.542V163.408V163.309C244.832 163.285 244.899 163.372 244.832 163.336H244.57L196.789 163.352L38.991 163.38H27.9745L28.0763 163.277C28.0892 165.133 28.5531 166.958 29.427 168.59C29.6483 168.991 29.8941 169.378 30.163 169.747L30.574 170.298L31.0321 170.809L31.2591 171.063L31.5097 171.297L32.0108 171.756C32.1909 171.899 32.3749 172.034 32.555 172.152C32.7309 172.298 32.9166 172.43 33.1109 172.549C34.6389 173.539 36.3896 174.123 38.2002 174.245C39.0889 174.312 40.0011 174.272 40.9015 174.284H104.789L172.164 174.34L217.377 174.371L229.631 174.391H232.814H233.894H232.814H229.631L217.377 174.411L172.164 174.443L104.789 174.494H40.8858C39.9815 174.494 39.085 174.522 38.1689 174.455C36.3296 174.328 34.5518 173.732 33.0012 172.723C32.8025 172.606 32.6127 172.473 32.4336 172.327C32.2496 172.188 32.0421 172.053 31.8816 171.907L31.3727 171.435L31.1143 171.201L30.8833 170.94L30.4057 170.429L30.0142 169.87C29.7421 169.488 29.4912 169.091 29.2625 168.681C28.3732 167.019 27.9013 165.16 27.8884 163.269L27.9902 163.166H38.9871L196.789 163.206L244.621 163.237H244.883C244.86 163.202 244.958 163.285 244.942 163.289V163.392V163.523C244.942 163.701 244.942 163.875 244.914 164.05C244.899 164.393 244.86 164.734 244.797 165.072C244.77 165.238 244.75 165.405 244.719 165.567L244.593 166.047C244.554 166.205 244.515 166.364 244.472 166.518C244.429 166.673 244.37 166.823 244.319 166.974C243.937 168.099 243.369 169.151 242.64 170.084C242.029 170.894 241.307 171.61 240.495 172.212C239.826 172.715 239.104 173.141 238.341 173.48C237.302 173.928 236.203 174.22 235.08 174.348C234.286 174.387 233.894 174.399 233.894 174.399Z" fill="#263238"/>
<path d="M117.872 163.277L120.562 167.707H158.438L160.936 163.277H117.872Z" fill="white"/>
<path d="M50.8884 42.6023H189.382V156.715H52.1138C50.0424 156.715 48.0558 155.883 46.5911 154.4C45.1264 152.918 44.3036 150.907 44.3036 148.811V49.2668C44.3036 47.4993 44.9973 45.8041 46.2322 44.5543C47.4671 43.3044 49.142 42.6023 50.8884 42.6023Z" fill="#455A64"/>
<path d="M75.9672 42.6023H46.7269C46.025 42.6023 45.3519 42.8845 44.8555 43.3868C44.3592 43.8891 44.0804 44.5704 44.0804 45.2808V153.086C44.0815 154.049 44.46 154.973 45.133 155.654C45.8061 156.335 46.7186 156.718 47.6704 156.719H74.8437C75.142 156.718 75.4278 156.598 75.6384 156.384C75.849 156.17 75.9672 155.88 75.9672 155.578V42.6023Z" fill="#263238"/>
<path d="M54.7054 51.0537C54.7062 51.4512 54.5904 51.84 54.3728 52.1709C54.1552 52.5018 53.8455 52.7599 53.4829 52.9125C53.1202 53.0652 52.721 53.1055 52.3357 53.0285C51.9505 52.9514 51.5964 52.7604 51.3185 52.4796C51.0405 52.1988 50.851 51.8409 50.7741 51.4511C50.6972 51.0613 50.7363 50.6572 50.8864 50.2899C51.0365 49.9226 51.2909 49.6086 51.6174 49.3877C51.9439 49.1668 52.3278 49.0488 52.7206 49.0488C52.981 49.0483 53.2391 49.0998 53.4798 49.2003C53.7206 49.3008 53.9395 49.4484 54.1238 49.6347C54.3082 49.8209 54.4545 50.0421 54.5543 50.2856C54.654 50.5291 54.7054 50.7901 54.7054 51.0537Z" fill="#455A64"/>
<path d="M58.0605 53.0587C59.1545 53.0587 60.0414 52.161 60.0414 51.0537C60.0414 49.9465 59.1545 49.0488 58.0605 49.0488C56.9664 49.0488 56.0795 49.9465 56.0795 51.0537C56.0795 52.161 56.9664 53.0587 58.0605 53.0587Z" fill="#455A64"/>
<path d="M63.7723 53.0587C64.8664 53.0587 65.7532 52.161 65.7532 51.0537C65.7532 49.9465 64.8664 49.0488 63.7723 49.0488C62.6783 49.0488 61.7914 49.9465 61.7914 51.0537C61.7914 52.161 62.6783 53.0587 63.7723 53.0587Z" fill="#455A64"/>
<path d="M125.753 52.5476H86.0285C85.5093 52.5476 85.0114 52.3389 84.6443 51.9673C84.2772 51.5958 84.071 51.0919 84.071 50.5665C84.0705 50.3071 84.1209 50.0502 84.2193 49.8107C84.3177 49.5712 84.4622 49.3538 84.6443 49.1713C84.8265 48.9888 85.0426 48.8448 85.2802 48.7476C85.5179 48.6504 85.7722 48.602 86.0285 48.6051H125.753C126.008 48.6046 126.26 48.655 126.495 48.7534C126.73 48.8517 126.944 48.9962 127.124 49.1784C127.304 49.3607 127.447 49.5771 127.544 49.8153C127.641 50.0535 127.691 50.3087 127.691 50.5665C127.691 51.0885 127.487 51.5894 127.124 51.9604C126.761 52.3313 126.269 52.5424 125.753 52.5476Z" fill="#EBEBEB"/>
<path d="M67.3192 78.3896H53.7149C53.3443 78.3896 52.9888 78.2406 52.7267 77.9753C52.4646 77.71 52.3173 77.3502 52.3173 76.9751C52.3173 76.5999 52.4646 76.2401 52.7267 75.9749C52.9888 75.7096 53.3443 75.5605 53.7149 75.5605H67.3192C67.6899 75.5605 68.0454 75.7096 68.3075 75.9749C68.5696 76.2401 68.7168 76.5999 68.7168 76.9751C68.7168 77.3502 68.5696 77.71 68.3075 77.9753C68.0454 78.2406 67.6899 78.3896 67.3192 78.3896Z" fill="#455A64"/>
<path d="M103.865 63.7925H90.9808C90.7969 63.7925 90.6149 63.7558 90.4451 63.6844C90.2752 63.6131 90.121 63.5086 89.9912 63.3768C89.8613 63.245 89.7585 63.0886 89.6885 62.9165C89.6185 62.7445 89.5827 62.5601 89.5832 62.374C89.5832 61.9988 89.7304 61.6391 89.9925 61.3738C90.2547 61.1085 90.6101 60.9595 90.9808 60.9595H103.865C104.235 60.9595 104.591 61.1085 104.853 61.3738C105.115 61.6391 105.262 61.9988 105.262 62.374C105.263 62.5601 105.227 62.7445 105.157 62.9165C105.087 63.0886 104.984 63.245 104.854 63.3768C104.725 63.5086 104.57 63.6131 104.4 63.6844C104.231 63.7558 104.049 63.7925 103.865 63.7925Z" fill="#263238"/>
<path d="M103.865 71.1821H90.9808C90.6101 71.1821 90.2546 71.0331 89.9925 70.7678C89.7304 70.5025 89.5832 70.1427 89.5832 69.7676C89.5832 69.3924 89.7304 69.0326 89.9925 68.7673C90.2546 68.5021 90.6101 68.353 90.9808 68.353H103.865C104.235 68.353 104.591 68.5021 104.853 68.7673C105.115 69.0326 105.262 69.3924 105.262 69.7676C105.262 70.1427 105.115 70.5025 104.853 70.7678C104.591 71.0331 104.235 71.1821 103.865 71.1821Z" fill="#263238"/>
<g opacity="0.2">
<path opacity="0.2" d="M103.865 78.8491H90.9808C90.6101 78.8491 90.2546 78.7 89.9925 78.4348C89.7304 78.1695 89.5832 77.8097 89.5832 77.4345C89.5832 77.0594 89.7304 76.6996 89.9925 76.4343C90.2546 76.169 90.6101 76.02 90.9808 76.02H103.865C104.235 76.02 104.591 76.169 104.853 76.4343C105.115 76.6996 105.262 77.0594 105.262 77.4345C105.262 77.8097 105.115 78.1695 104.853 78.4348C104.591 78.7 104.235 78.8491 103.865 78.8491Z" fill="black"/>
</g>
<path d="M98.3682 93.6323H90.9808C90.6101 93.6323 90.2546 93.4832 89.9925 93.218C89.7304 92.9527 89.5832 92.5929 89.5832 92.2177C89.5832 91.8426 89.7304 91.4828 89.9925 91.2175C90.2546 90.9523 90.6101 90.8032 90.9808 90.8032H98.3682C98.5519 90.8027 98.7339 90.8389 98.9037 90.9098C99.0735 90.9807 99.2277 91.0849 99.3576 91.2164C99.4875 91.3478 99.5904 91.504 99.6605 91.6758C99.7305 91.8477 99.7663 92.0318 99.7658 92.2177C99.7658 92.5929 99.6186 92.9527 99.3565 93.218C99.0944 93.4832 98.7389 93.6323 98.3682 93.6323Z" fill="#263238"/>
<path d="M98.3682 101.303H90.9808C90.7969 101.303 90.6149 101.267 90.4451 101.195C90.2752 101.124 90.121 101.019 89.9912 100.888C89.8613 100.756 89.7585 100.599 89.6885 100.427C89.6185 100.255 89.5827 100.071 89.5832 99.8847C89.5832 99.5096 89.7304 99.1498 89.9925 98.8845C90.2547 98.6193 90.6101 98.4702 90.9808 98.4702H98.3682C98.7389 98.4702 99.0944 98.6193 99.3565 98.8845C99.6186 99.1498 99.7658 99.5096 99.7658 99.8847C99.7663 100.071 99.7306 100.255 99.6606 100.427C99.5906 100.599 99.4877 100.756 99.3578 100.888C99.228 101.019 99.0738 101.124 98.904 101.195C98.7341 101.267 98.5521 101.303 98.3682 101.303Z" fill="#263238"/>
<g opacity="0.2">
<path opacity="0.2" d="M120.327 101.303H106.781C106.597 101.303 106.415 101.267 106.246 101.195C106.076 101.124 105.922 101.019 105.792 100.888C105.662 100.756 105.559 100.599 105.489 100.427C105.419 100.255 105.383 100.071 105.384 99.8847C105.384 99.5096 105.531 99.1498 105.793 98.8845C106.055 98.6193 106.411 98.4702 106.781 98.4702H120.327C120.698 98.4702 121.053 98.6193 121.315 98.8845C121.577 99.1498 121.724 99.5096 121.724 99.8847C121.725 100.071 121.689 100.255 121.619 100.427C121.549 100.599 121.446 100.756 121.317 100.888C121.187 101.019 121.032 101.124 120.863 101.195C120.693 101.267 120.511 101.303 120.327 101.303Z" fill="black"/>
</g>
<path d="M112.665 108.122H99.116C98.7453 108.122 98.3898 107.973 98.1277 107.708C97.8656 107.443 97.7184 107.083 97.7184 106.708C97.7184 106.333 97.8656 105.973 98.1277 105.708C98.3898 105.442 98.7453 105.293 99.116 105.293H112.665C113.036 105.293 113.392 105.442 113.654 105.708C113.916 105.973 114.063 106.333 114.063 106.708C114.063 107.083 113.916 107.443 113.654 107.708C113.392 107.973 113.036 108.122 112.665 108.122Z" fill="#263238"/>
<path d="M115.222 113.071H106.805C106.033 113.071 105.407 113.704 105.407 114.486C105.407 115.267 106.033 115.9 106.805 115.9H115.222C115.994 115.9 116.619 115.267 116.619 114.486C116.619 113.704 115.994 113.071 115.222 113.071Z" fill="#2A7DE1"/>
<path d="M115.222 131.151H106.805C106.621 131.151 106.439 131.114 106.269 131.043C106.099 130.972 105.945 130.867 105.815 130.735C105.685 130.603 105.582 130.447 105.512 130.275C105.442 130.103 105.407 129.918 105.407 129.732C105.407 129.357 105.554 128.997 105.817 128.732C106.079 128.467 106.434 128.318 106.805 128.318H115.222C115.593 128.318 115.948 128.467 116.21 128.732C116.472 128.997 116.619 129.357 116.619 129.732C116.62 129.918 116.584 130.103 116.514 130.275C116.444 130.447 116.341 130.603 116.212 130.735C116.082 130.867 115.927 130.972 115.758 131.043C115.588 131.114 115.406 131.151 115.222 131.151Z" fill="#2A7DE1"/>
<path d="M115.222 147.254H106.805C106.434 147.254 106.079 147.105 105.817 146.839C105.554 146.574 105.407 146.214 105.407 145.839C105.407 145.464 105.554 145.104 105.817 144.839C106.079 144.574 106.434 144.425 106.805 144.425H115.222C115.592 144.425 115.948 144.574 116.21 144.839C116.472 145.104 116.619 145.464 116.619 145.839C116.619 146.214 116.472 146.574 116.21 146.839C115.948 147.105 115.592 147.254 115.222 147.254Z" fill="#2A7DE1"/>
<g opacity="0.2">
<path opacity="0.2" d="M135.916 147.254H121.157C120.786 147.254 120.431 147.105 120.169 146.839C119.906 146.574 119.759 146.214 119.759 145.839C119.759 145.464 119.906 145.104 120.169 144.839C120.431 144.574 120.786 144.425 121.157 144.425H135.916C136.287 144.425 136.642 144.574 136.904 144.839C137.166 145.104 137.314 145.464 137.314 145.839C137.314 146.214 137.166 146.574 136.904 146.839C136.642 147.105 136.287 147.254 135.916 147.254Z" fill="black"/>
</g>
<g opacity="0.2">
<path opacity="0.2" d="M146.243 147.254H144.118C143.747 147.254 143.392 147.105 143.129 146.839C142.867 146.574 142.72 146.214 142.72 145.839C142.72 145.464 142.867 145.104 143.129 144.839C143.392 144.574 143.747 144.425 144.118 144.425H146.243C146.614 144.425 146.97 144.574 147.232 144.839C147.494 145.104 147.641 145.464 147.641 145.839C147.641 146.214 147.494 146.574 147.232 146.839C146.97 147.105 146.614 147.254 146.243 147.254Z" fill="black"/>
</g>
<g opacity="0.2">
<path opacity="0.2" d="M135.031 131.151H122.558C122.374 131.151 122.192 131.114 122.023 131.043C121.853 130.972 121.699 130.867 121.569 130.735C121.439 130.603 121.336 130.447 121.266 130.275C121.196 130.103 121.16 129.918 121.161 129.732C121.161 129.357 121.308 128.997 121.57 128.732C121.832 128.467 122.188 128.318 122.558 128.318H135.031C135.402 128.318 135.757 128.467 136.019 128.732C136.282 128.997 136.429 129.357 136.429 129.732C136.429 129.918 136.394 130.103 136.324 130.275C136.254 130.447 136.151 130.603 136.021 130.735C135.891 130.867 135.737 130.972 135.567 131.043C135.397 131.114 135.215 131.151 135.031 131.151Z" fill="black"/>
</g>
<g opacity="0.2">
<path opacity="0.2" d="M162.381 138.22H122.558C122.188 138.22 121.832 138.071 121.57 137.805C121.308 137.54 121.161 137.18 121.161 136.805C121.161 136.43 121.308 136.07 121.57 135.805C121.832 135.54 122.188 135.391 122.558 135.391H162.381C162.751 135.391 163.107 135.54 163.369 135.805C163.631 136.07 163.778 136.43 163.778 136.805C163.778 137.18 163.631 137.54 163.369 137.805C163.107 138.071 162.751 138.22 162.381 138.22Z" fill="black"/>
</g>
<g opacity="0.2">
<path opacity="0.2" d="M166.977 131.151H141.557C141.373 131.151 141.191 131.114 141.022 131.043C140.852 130.972 140.698 130.867 140.568 130.735C140.438 130.603 140.335 130.447 140.265 130.275C140.195 130.103 140.159 129.919 140.16 129.732C140.16 129.357 140.307 128.997 140.569 128.732C140.831 128.467 141.187 128.318 141.557 128.318H166.977C167.161 128.317 167.343 128.354 167.513 128.424C167.683 128.495 167.837 128.599 167.968 128.731C168.098 128.862 168.201 129.018 168.271 129.19C168.342 129.362 168.378 129.546 168.378 129.732C168.378 130.109 168.231 130.469 167.968 130.735C167.705 131.001 167.348 131.151 166.977 131.151Z" fill="black"/>
</g>
<g opacity="0.2">
<path opacity="0.2" d="M132.216 113.071H121.681C120.91 113.071 120.284 113.704 120.284 114.486C120.284 115.267 120.91 115.9 121.681 115.9H132.216C132.988 115.9 133.614 115.267 133.614 114.486C133.614 113.704 132.988 113.071 132.216 113.071Z" fill="black"/>
</g>
<g opacity="0.2">
<path opacity="0.2" d="M141.33 113.071H138.711C137.939 113.071 137.314 113.704 137.314 114.486C137.314 115.267 137.939 115.9 138.711 115.9H141.33C142.102 115.9 142.728 115.267 142.728 114.486C142.728 113.704 142.102 113.071 141.33 113.071Z" fill="black"/>
</g>
<g opacity="0.2">
<path opacity="0.2" d="M161.41 113.071H148.24C147.468 113.071 146.842 113.704 146.842 114.486C146.842 115.267 147.468 115.9 148.24 115.9H161.41C162.182 115.9 162.807 115.267 162.807 114.486C162.807 113.704 162.182 113.071 161.41 113.071Z" fill="black"/>
</g>
<path d="M121.842 108.122H118.824C118.453 108.122 118.097 107.973 117.835 107.708C117.573 107.443 117.426 107.083 117.426 106.708C117.426 106.333 117.573 105.973 117.835 105.708C118.097 105.442 118.453 105.293 118.824 105.293H121.842C122.213 105.293 122.568 105.442 122.83 105.708C123.092 105.973 123.24 106.333 123.24 106.708C123.24 107.083 123.092 107.443 122.83 107.708C122.568 107.973 122.213 108.122 121.842 108.122Z" fill="#263238"/>
<g opacity="0.2">
<path opacity="0.2" d="M147.414 108.122H128.196C127.825 108.122 127.47 107.973 127.208 107.708C126.945 107.443 126.798 107.083 126.798 106.708C126.798 106.333 126.945 105.973 127.208 105.708C127.47 105.442 127.825 105.293 128.196 105.293H147.414C147.785 105.293 148.14 105.442 148.402 105.708C148.664 105.973 148.812 106.333 148.812 106.708C148.812 107.083 148.664 107.443 148.402 107.708C148.14 107.973 147.785 108.122 147.414 108.122Z" fill="black"/>
</g>
<g opacity="0.2">
<path opacity="0.2" d="M124.508 63.7925H111.624C111.44 63.7925 111.258 63.7558 111.088 63.6844C110.918 63.6131 110.764 63.5086 110.634 63.3768C110.505 63.245 110.402 63.0886 110.332 62.9165C110.262 62.7445 110.226 62.5601 110.226 62.374C110.226 61.9988 110.374 61.6391 110.636 61.3738C110.898 61.1085 111.253 60.9595 111.624 60.9595H124.508C124.879 60.9595 125.234 61.1085 125.496 61.3738C125.758 61.6391 125.906 61.9988 125.906 62.374C125.906 62.5601 125.87 62.7445 125.8 62.9165C125.73 63.0886 125.627 63.245 125.498 63.3768C125.368 63.5086 125.214 63.6131 125.044 63.6844C124.874 63.7558 124.692 63.7925 124.508 63.7925Z" fill="black"/>
</g>
<g opacity="0.2">
<path opacity="0.2" d="M141.107 71.1821H111.624C111.253 71.1821 110.898 71.0331 110.636 70.7678C110.374 70.5025 110.226 70.1427 110.226 69.7676C110.226 69.5817 110.262 69.3975 110.332 69.2256C110.402 69.0538 110.505 68.8976 110.635 68.7662C110.765 68.6347 110.919 68.5305 111.089 68.4596C111.258 68.3887 111.44 68.3525 111.624 68.353H141.107C141.478 68.353 141.833 68.5021 142.095 68.7673C142.357 69.0326 142.505 69.3924 142.505 69.7676C142.505 70.1427 142.357 70.5025 142.095 70.7678C141.833 71.0331 141.478 71.1821 141.107 71.1821Z" fill="black"/>
</g>
<g opacity="0.2">
<path opacity="0.2" d="M172.853 78.8491H111.624C111.253 78.8491 110.898 78.7 110.636 78.4348C110.374 78.1695 110.226 77.8097 110.226 77.4345C110.226 77.0594 110.374 76.6996 110.636 76.4343C110.898 76.169 111.253 76.02 111.624 76.02H172.853C173.224 76.02 173.579 76.169 173.841 76.4343C174.103 76.6996 174.251 77.0594 174.251 77.4345C174.251 77.8097 174.103 78.1695 173.841 78.4348C173.579 78.7 173.224 78.8491 172.853 78.8491Z" fill="black"/>
</g>
<g opacity="0.2">
<path opacity="0.2" d="M140.492 84.226H111.624C111.253 84.226 110.898 84.077 110.636 83.8117C110.374 83.5464 110.226 83.1867 110.226 82.8115C110.226 82.4363 110.374 82.0766 110.636 81.8113C110.898 81.546 111.253 81.397 111.624 81.397H140.492C140.863 81.397 141.219 81.546 141.481 81.8113C141.743 82.0766 141.89 82.4363 141.89 82.8115C141.89 83.1867 141.743 83.5464 141.481 83.8117C141.219 84.077 140.863 84.226 140.492 84.226Z" fill="black"/>
</g>
<g opacity="0.2">
<path opacity="0.2" d="M134.589 93.6323H105.716C105.346 93.6323 104.99 93.4832 104.728 93.218C104.466 92.9527 104.319 92.5929 104.319 92.2177C104.319 91.8426 104.466 91.4828 104.728 91.2175C104.99 90.9522 105.346 90.8032 105.716 90.8032H134.589C134.959 90.8032 135.315 90.9522 135.577 91.2175C135.839 91.4828 135.986 91.8426 135.986 92.2177C135.986 92.5929 135.839 92.9527 135.577 93.218C135.315 93.4832 134.959 93.6323 134.589 93.6323Z" fill="black"/>
</g>
<g opacity="0.2">
<path opacity="0.2" d="M150.75 93.6323H141.072C140.701 93.6323 140.346 93.4832 140.084 93.218C139.822 92.9527 139.674 92.5929 139.674 92.2177C139.674 91.8426 139.822 91.4828 140.084 91.2175C140.346 90.9522 140.701 90.8032 141.072 90.8032H150.75C151.12 90.8032 151.476 90.9522 151.738 91.2175C152 91.4828 152.147 91.8426 152.147 92.2177C152.147 92.5929 152 92.9527 151.738 93.218C151.476 93.4832 151.12 93.6323 150.75 93.6323Z" fill="black"/>
</g>
<path d="M175.492 93.5847H157.213C156.842 93.5847 156.487 93.4356 156.225 93.1704C155.963 92.9051 155.815 92.5453 155.815 92.1701C155.815 91.795 155.963 91.4352 156.225 91.1699C156.487 90.9046 156.842 90.7556 157.213 90.7556H175.492C175.862 90.7556 176.218 90.9046 176.48 91.1699C176.742 91.4352 176.889 91.795 176.889 92.1701C176.889 92.5453 176.742 92.9051 176.48 93.1704C176.218 93.4356 175.862 93.5847 175.492 93.5847Z" fill="#263238"/>
<path d="M61.4273 86.0168H53.7149C53.3443 86.0168 52.9888 85.8678 52.7267 85.6025C52.4646 85.3372 52.3173 84.9774 52.3173 84.6023C52.3173 84.2271 52.4646 83.8673 52.7267 83.6021C52.9888 83.3368 53.3443 83.1877 53.7149 83.1877H61.4273C61.7979 83.1877 62.1534 83.3368 62.4155 83.6021C62.6776 83.8673 62.8249 84.2271 62.8249 84.6023C62.8249 84.9774 62.6776 85.3372 62.4155 85.6025C62.1534 85.8678 61.7979 86.0168 61.4273 86.0168Z" fill="#455A64"/>
<path d="M59.1175 108.907H53.7149C53.3443 108.907 52.9888 108.758 52.7267 108.492C52.4646 108.227 52.3173 107.867 52.3173 107.492C52.3173 107.117 52.4646 106.757 52.7267 106.492C52.9888 106.227 53.3443 106.078 53.7149 106.078H59.1175C59.3014 106.077 59.4835 106.113 59.6535 106.184C59.8236 106.255 59.9781 106.359 60.1083 106.491C60.2385 106.622 60.3418 106.778 60.4123 106.95C60.4827 107.122 60.519 107.306 60.519 107.492C60.519 107.678 60.4827 107.863 60.4123 108.034C60.3418 108.206 60.2385 108.362 60.1083 108.494C59.9781 108.625 59.8236 108.729 59.6535 108.8C59.4835 108.871 59.3014 108.907 59.1175 108.907Z" fill="#455A64"/>
<path d="M68.7168 93.6481H53.7149C53.3443 93.6481 52.9888 93.4991 52.7267 93.2338C52.4646 92.9686 52.3173 92.6088 52.3173 92.2336C52.3173 91.8585 52.4646 91.4987 52.7267 91.2334C52.9888 90.9681 53.3443 90.8191 53.7149 90.8191H68.7168C69.0875 90.8191 69.443 90.9681 69.7051 91.2334C69.9672 91.4987 70.1144 91.8585 70.1144 92.2336C70.1144 92.6088 69.9672 92.9686 69.7051 93.2338C69.443 93.4991 69.0875 93.6481 68.7168 93.6481Z" fill="#455A64"/>
<path d="M66.086 101.28H53.7149C53.5311 101.278 53.3493 101.24 53.1801 101.167C53.0108 101.094 52.8574 100.988 52.7287 100.855C52.6 100.723 52.4984 100.565 52.4298 100.393C52.3612 100.22 52.327 100.035 52.3291 99.8491C52.3286 99.6631 52.3643 99.4787 52.4343 99.3066C52.5043 99.1345 52.6072 98.9781 52.737 98.8464C52.8669 98.7146 53.0211 98.6101 53.1909 98.5387C53.3608 98.4674 53.5428 98.4307 53.7267 98.4307H66.0978C66.2816 98.4307 66.4637 98.4674 66.6335 98.5387C66.8033 98.6101 66.9576 98.7146 67.0874 98.8464C67.2172 98.9781 67.3201 99.1345 67.3901 99.3066C67.4601 99.4787 67.4959 99.6631 67.4954 99.8491C67.4975 100.037 67.4625 100.224 67.3924 100.398C67.3224 100.572 67.2187 100.731 67.0875 100.864C66.9562 100.997 66.8001 101.102 66.6281 101.174C66.4562 101.245 66.2719 101.281 66.086 101.28Z" fill="#455A64"/>
<path d="M83.245 63.7965C84.0298 63.7965 84.6661 63.1526 84.6661 62.3582C84.6661 61.5639 84.0298 60.9199 83.245 60.9199C82.4601 60.9199 81.8239 61.5639 81.8239 62.3582C81.8239 63.1526 82.4601 63.7965 83.245 63.7965Z" fill="#263238"/>
<path d="M84.6661 69.7359C84.6661 70.0204 84.5828 70.2985 84.4266 70.535C84.2704 70.7715 84.0485 70.9559 83.7888 71.0647C83.5292 71.1736 83.2434 71.2021 82.9677 71.1466C82.6921 71.0911 82.4389 70.9541 82.2401 70.753C82.0414 70.5518 81.906 70.2955 81.8512 70.0165C81.7964 69.7375 81.8245 69.4483 81.9321 69.1855C82.0396 68.9227 82.2218 68.6981 82.4555 68.54C82.6892 68.382 82.9639 68.2976 83.245 68.2976C83.6219 68.2976 83.9834 68.4491 84.2499 68.7189C84.5164 68.9886 84.6661 69.3545 84.6661 69.7359Z" fill="#263238"/>
<path d="M83.245 78.8571C84.0298 78.8571 84.6661 78.2131 84.6661 77.4188C84.6661 76.6244 84.0298 75.9805 83.245 75.9805C82.4601 75.9805 81.8239 76.6244 81.8239 77.4188C81.8239 78.2131 82.4601 78.8571 83.245 78.8571Z" fill="#263238"/>
<path d="M84.6661 85.0935C84.6669 85.3782 84.5842 85.6566 84.4285 85.8937C84.2728 86.1307 84.0512 86.3157 83.7916 86.4252C83.532 86.5346 83.2461 86.5637 82.9702 86.5086C82.6943 86.4536 82.4407 86.3169 82.2415 86.1159C82.0424 85.9149 81.9067 85.6586 81.8515 85.3795C81.7964 85.1004 81.8243 84.811 81.9317 84.548C82.0392 84.2849 82.2213 84.0601 82.4551 83.9019C82.6889 83.7436 82.9638 83.6592 83.245 83.6592C83.4315 83.6587 83.6162 83.6954 83.7885 83.7672C83.9609 83.8391 84.1176 83.9446 84.2496 84.0779C84.3817 84.2111 84.4864 84.3694 84.5579 84.5437C84.6293 84.718 84.6661 84.9048 84.6661 85.0935Z" fill="#263238"/>
<path d="M83.245 94.2108C84.0298 94.2108 84.6661 93.5669 84.6661 92.7725C84.6661 91.9782 84.0298 91.3342 83.245 91.3342C82.4601 91.3342 81.8239 91.9782 81.8239 92.7725C81.8239 93.5669 82.4601 94.2108 83.245 94.2108Z" fill="#263238"/>
<path d="M84.6661 100.447C84.6661 100.732 84.5827 101.01 84.4266 101.246C84.2704 101.483 84.0485 101.667 83.7888 101.776C83.5292 101.885 83.2434 101.913 82.9677 101.858C82.6921 101.802 82.4389 101.666 82.2401 101.464C82.0414 101.263 81.906 101.007 81.8512 100.728C81.7964 100.449 81.8245 100.16 81.9321 99.8969C82.0396 99.6341 82.2218 99.4095 82.4555 99.2514C82.6892 99.0934 82.9639 99.009 83.245 99.009C83.4318 99.0085 83.6168 99.0454 83.7894 99.1175C83.9621 99.1895 84.1189 99.2955 84.251 99.4291C84.3831 99.5628 84.4877 99.7216 84.559 99.8963C84.6302 100.071 84.6666 100.258 84.6661 100.447Z" fill="#263238"/>
<path d="M83.245 109.56C84.0298 109.56 84.6661 108.916 84.6661 108.122C84.6661 107.328 84.0298 106.684 83.245 106.684C82.4601 106.684 81.8239 107.328 81.8239 108.122C81.8239 108.916 82.4601 109.56 83.245 109.56Z" fill="#263238"/>
<path d="M84.6661 115.797C84.6661 116.082 84.5828 116.36 84.4266 116.596C84.2704 116.833 84.0485 117.017 83.7888 117.126C83.5292 117.235 83.2434 117.263 82.9677 117.208C82.6921 117.152 82.4389 117.015 82.2401 116.814C82.0414 116.613 81.906 116.357 81.8512 116.078C81.7964 115.799 81.8245 115.51 81.9321 115.247C82.0396 114.984 82.2218 114.759 82.4555 114.601C82.6892 114.443 82.9639 114.359 83.245 114.359C83.6219 114.359 83.9834 114.51 84.2499 114.78C84.5164 115.05 84.6661 115.416 84.6661 115.797Z" fill="#263238"/>
<path d="M83.245 124.911C84.0298 124.911 84.6661 124.267 84.6661 123.472C84.6661 122.678 84.0298 122.034 83.245 122.034C82.4601 122.034 81.8239 122.678 81.8239 123.472C81.8239 124.267 82.4601 124.911 83.245 124.911Z" fill="#263238"/>
<path d="M84.6661 131.151C84.6661 131.435 84.5827 131.714 84.4266 131.95C84.2704 132.187 84.0485 132.371 83.7888 132.48C83.5292 132.589 83.2434 132.617 82.9677 132.562C82.6921 132.506 82.4389 132.369 82.2401 132.168C82.0414 131.967 81.906 131.711 81.8512 131.432C81.7964 131.153 81.8245 130.863 81.9321 130.601C82.0396 130.338 82.2218 130.113 82.4555 129.955C82.6892 129.797 82.9639 129.713 83.245 129.713C83.4318 129.712 83.6168 129.749 83.7894 129.821C83.9621 129.893 84.1189 129.999 84.251 130.133C84.3831 130.266 84.4877 130.425 84.559 130.6C84.6302 130.775 84.6666 130.962 84.6661 131.151Z" fill="#263238"/>
<path d="M83.245 140.264C84.0298 140.264 84.6661 139.62 84.6661 138.826C84.6661 138.032 84.0298 137.388 83.245 137.388C82.4601 137.388 81.8239 138.032 81.8239 138.826C81.8239 139.62 82.4601 140.264 83.245 140.264Z" fill="#263238"/>
<path d="M84.6661 146.501C84.6661 146.785 84.5828 147.063 84.4266 147.3C84.2704 147.536 84.0485 147.721 83.7888 147.83C83.5292 147.938 83.2434 147.967 82.9677 147.911C82.6921 147.856 82.4389 147.719 82.2401 147.518C82.0414 147.317 81.906 147.06 81.8512 146.781C81.7964 146.502 81.8245 146.213 81.9321 145.95C82.0396 145.688 82.2218 145.463 82.4555 145.305C82.6892 145.147 82.9639 145.062 83.245 145.062C83.6219 145.062 83.9834 145.214 84.2499 145.484C84.5164 145.754 84.6661 146.119 84.6661 146.501Z" fill="#263238"/>
<g opacity="0.2">
<path opacity="0.2" d="M167.309 42.4319H163.778V156.719H167.309V42.4319Z" fill="black"/>
</g>
<path d="M167.302 42.4319H228.961C229.356 42.4319 229.747 42.5106 230.112 42.6635C230.477 42.8164 230.808 43.0406 231.087 43.3232C231.366 43.6057 231.588 43.9412 231.739 44.3104C231.89 44.6796 231.968 45.0753 231.968 45.4749V154.255C231.968 154.909 231.711 155.535 231.255 155.998C230.798 156.46 230.179 156.719 229.533 156.719H167.286V42.4319H167.302Z" fill="white"/>
<path d="M227.904 61.6213H167.29V105.916H227.904V61.6213Z" fill="#2A7DE1"/>
<path d="M220.035 119.518C220.035 119.577 214.946 119.621 208.651 119.621C202.356 119.621 197.262 119.577 197.262 119.518C197.262 119.458 202.352 119.415 208.651 119.415C214.95 119.415 220.035 119.462 220.035 119.518Z" fill="#263238"/>
<path d="M225.086 125.37C225.086 125.426 217.726 125.473 208.643 125.473C199.56 125.473 192.2 125.426 192.2 125.37C192.2 125.315 199.556 125.267 208.643 125.267C217.729 125.267 225.086 125.311 225.086 125.37Z" fill="#263238"/>
<path d="M225.086 129.962C225.086 130.018 217.726 130.065 208.643 130.065C199.56 130.065 192.2 130.018 192.2 129.962C192.2 129.907 199.556 129.859 208.643 129.859C217.729 129.859 225.086 129.887 225.086 129.962Z" fill="#263238"/>
<path d="M225.086 134.515C225.086 134.574 217.726 134.618 208.643 134.618C199.56 134.618 192.2 134.574 192.2 134.515C192.2 134.455 199.556 134.412 208.643 134.412C217.729 134.412 225.086 134.459 225.086 134.515Z" fill="#263238"/>
<path d="M216.093 148.799H201.216C200.722 148.799 200.232 148.7 199.775 148.509C199.318 148.317 198.903 148.036 198.553 147.683C198.204 147.329 197.926 146.908 197.737 146.446C197.548 145.983 197.45 145.488 197.45 144.987C197.45 143.976 197.847 143.007 198.553 142.292C199.26 141.577 200.218 141.176 201.216 141.176H216.093C217.092 141.176 218.05 141.577 218.756 142.292C219.462 143.007 219.859 143.976 219.859 144.987C219.86 145.488 219.763 145.984 219.573 146.447C219.384 146.909 219.107 147.33 218.757 147.684C218.407 148.038 217.992 148.318 217.535 148.51C217.078 148.701 216.588 148.799 216.093 148.799Z" fill="#2A7DE1"/>
<path d="M180.671 119.518C180.498 119.55 180.322 119.563 180.146 119.557L178.714 119.593C177.504 119.593 175.832 119.621 173.988 119.621C172.144 119.621 170.465 119.621 169.259 119.593L167.826 119.557C167.65 119.563 167.475 119.55 167.302 119.518C167.475 119.488 167.651 119.475 167.826 119.478L169.259 119.446C170.469 119.446 172.14 119.415 173.988 119.415C175.836 119.415 177.512 119.415 178.714 119.446L180.146 119.478C180.322 119.475 180.498 119.488 180.671 119.518Z" fill="#263238"/>
<path d="M185.721 125.37C185.659 125.378 185.596 125.378 185.533 125.37L184.997 125.39L183.04 125.422C181.372 125.441 179.07 125.453 176.529 125.453C173.988 125.453 171.682 125.453 170.015 125.422L168.057 125.39L167.521 125.37C167.459 125.378 167.395 125.378 167.333 125.37C167.394 125.352 167.457 125.344 167.521 125.346H168.057L170.015 125.311C171.682 125.311 173.984 125.283 176.529 125.283C179.074 125.283 181.372 125.283 183.04 125.311L184.997 125.346H185.533C185.597 125.344 185.66 125.352 185.721 125.37Z" fill="#263238"/>
<path d="M185.721 129.962C185.66 129.98 185.597 129.986 185.533 129.982L184.997 130.002L183.04 130.034C181.372 130.053 179.07 130.065 176.529 130.065C173.988 130.065 171.682 130.065 170.015 130.034L168.057 130.002L167.521 129.982C167.516 130.005 167.503 130.025 167.484 130.039C167.465 130.053 167.442 130.059 167.419 130.057C167.396 130.054 167.375 130.043 167.359 130.026C167.344 130.008 167.335 129.986 167.335 129.962C167.335 129.939 167.344 129.916 167.359 129.899C167.375 129.881 167.396 129.87 167.419 129.868C167.442 129.865 167.465 129.872 167.484 129.885C167.503 129.899 167.516 129.919 167.521 129.942H168.057L170.015 129.911C171.682 129.911 173.984 129.879 176.529 129.879C179.074 129.879 181.372 129.879 183.04 129.911L184.997 129.942H185.533C185.597 129.938 185.66 129.945 185.721 129.962Z" fill="#263238"/>
<path d="M185.721 134.515C185.66 134.532 185.597 134.539 185.533 134.535H184.997L183.04 134.57C181.372 134.57 179.07 134.598 176.529 134.598C173.988 134.598 171.682 134.598 170.015 134.57L168.057 134.535H167.521C167.458 134.539 167.394 134.532 167.333 134.515C167.395 134.5 167.458 134.493 167.521 134.495L168.057 134.475L170.015 134.444C171.682 134.424 173.984 134.412 176.529 134.412C179.074 134.412 181.372 134.412 183.04 134.444L184.997 134.475L185.533 134.495C185.597 134.493 185.66 134.5 185.721 134.515Z" fill="#263238"/>
<path d="M176.846 141.176H167.302V148.799H176.846C177.845 148.799 178.803 148.397 179.509 147.683C180.216 146.968 180.612 145.998 180.612 144.987C180.612 143.976 180.216 143.007 179.509 142.292C178.803 141.577 177.845 141.176 176.846 141.176Z" fill="#2A7DE1"/>
<path d="M227.9 42.4319H228.969C229.764 42.4319 230.527 42.7517 231.09 43.3208C231.652 43.89 231.968 44.662 231.968 45.467V154.132C231.968 154.817 231.699 155.474 231.22 155.959C230.742 156.443 230.092 156.715 229.415 156.715H227.9V42.4319Z" fill="#F5F5F5"/>
<path d="M229.936 61.32C229.669 61.3205 229.404 61.2677 229.157 61.1646C228.91 61.0615 228.686 60.9101 228.497 60.7191C228.308 60.5281 228.158 60.3012 228.055 60.0515C227.953 59.8017 227.9 59.534 227.9 59.2636V48.4426C227.9 48.1723 227.953 47.9045 228.055 47.6548C228.158 47.405 228.308 47.1781 228.497 46.9871C228.686 46.7961 228.91 46.6447 229.157 46.5416C229.404 46.4385 229.669 46.3857 229.936 46.3862C230.475 46.3862 230.992 46.6029 231.373 46.9885C231.754 47.3742 231.968 47.8972 231.968 48.4426V59.2636C231.968 59.809 231.754 60.3321 231.373 60.7177C230.992 61.1034 230.475 61.32 229.936 61.32Z" fill="#E0E0E0"/>
<path d="M216.907 56.0424H196.887C195.619 56.006 194.416 55.471 193.532 54.5509C192.649 53.6309 192.154 52.3984 192.154 51.1153C192.154 49.8322 192.649 48.5997 193.532 47.6797C194.416 46.7597 195.619 46.2246 196.887 46.1882H216.907C218.175 46.2246 219.378 46.7597 220.261 47.6797C221.145 48.5997 221.639 49.8322 221.639 51.1153C221.639 52.3984 221.145 53.6309 220.261 54.5509C219.378 55.471 218.175 56.006 216.907 56.0424ZM196.887 46.5845C195.722 46.6193 194.617 47.1119 193.806 47.9578C192.994 48.8037 192.54 49.9363 192.54 51.1153C192.54 52.2943 192.994 53.4269 193.806 54.2728C194.617 55.1187 195.722 55.6113 196.887 55.6462H216.907C218.072 55.6113 219.177 55.1187 219.988 54.2728C220.8 53.4269 221.254 52.2943 221.254 51.1153C221.254 49.9363 220.8 48.8037 219.988 47.9578C219.177 47.1119 218.072 46.6193 216.907 46.5845H196.887Z" fill="#E0E0E0"/>
<path d="M182.695 50.9033C182.695 50.9627 179.211 51.0063 174.916 51.0063C170.621 51.0063 167.137 50.9627 167.137 50.9033C167.137 50.8439 170.621 50.8003 174.916 50.8003C179.211 50.8003 182.695 50.8478 182.695 50.9033Z" fill="#E0E0E0"/>
<path d="M216.336 50.9033C216.336 50.9627 212.249 51.0063 207.206 51.0063C202.164 51.0063 198.073 50.9627 198.073 50.9033C198.073 50.8439 202.16 50.8003 207.206 50.8003C212.252 50.8003 216.336 50.8478 216.336 50.9033Z" fill="#E0E0E0"/>
<path d="M199.372 80.2994C201.757 80.2994 203.691 78.2806 203.691 75.7903C203.691 73.3 201.757 71.2812 199.372 71.2812C196.988 71.2812 195.054 73.3 195.054 75.7903C195.054 78.2806 196.988 80.2994 199.372 80.2994Z" fill="white"/>
<path d="M227.9 96.0691L227.728 95.9423L227.235 95.5461L225.344 94.0483L218.407 88.5012L213.623 84.6776L212.973 84.1545C212.76 83.9865 212.515 83.8663 212.253 83.8019C211.983 83.7362 211.703 83.732 211.432 83.7895C211.162 83.8471 210.907 83.965 210.687 84.1347C209.825 84.9074 208.937 85.7474 208.028 86.5834L202.32 91.873C201.819 92.3287 201.334 92.7923 200.813 93.2559C200.533 93.4902 200.195 93.6442 199.836 93.7021C199.476 93.7599 199.108 93.7194 198.77 93.5847C198.432 93.4481 198.134 93.229 197.901 92.9468L197.188 92.1544L195.751 90.5695L190.133 84.3962L187.456 81.4523L186.16 80.0259C185.948 79.7881 185.733 79.5544 185.522 79.3245C185.325 79.0874 185.112 78.865 184.883 78.6589C184.542 78.3844 184.117 78.24 183.681 78.2508C183.245 78.2617 182.827 78.4272 182.499 78.7183C182.296 78.9045 182.108 79.1462 181.9 79.3602L179.606 81.8961L175.484 86.4487L169.502 93.034L167.869 94.8131L167.439 95.2766C167.392 95.3294 167.342 95.3797 167.29 95.4272C167.29 95.4272 167.333 95.3678 167.423 95.2608C167.513 95.1538 167.662 94.9914 167.838 94.7853L169.443 92.9785L175.378 86.3496L179.481 81.7811C180.22 80.9623 180.982 80.1144 181.767 79.2374C181.971 79.0194 182.159 78.7976 182.378 78.5796C182.613 78.3692 182.893 78.216 183.196 78.1319C183.506 78.0483 183.832 78.0406 184.146 78.1095C184.46 78.1784 184.753 78.3219 185.001 78.5281C185.236 78.7403 185.457 78.9679 185.663 79.2096L186.301 79.911L187.6 81.3334L190.278 84.2734L195.912 90.4585L197.349 92.0434C197.587 92.3049 197.822 92.5664 198.061 92.8359C198.269 93.0964 198.538 93.2996 198.844 93.4263C199.153 93.5487 199.489 93.5842 199.816 93.5291C200.144 93.474 200.45 93.3303 200.704 93.1132C201.209 92.6615 201.71 92.19 202.203 91.7344L207.923 86.4566C208.839 85.6166 209.708 84.7925 210.597 84C210.838 83.8161 211.116 83.6887 211.412 83.627C211.708 83.5653 212.014 83.5709 212.307 83.6434C212.593 83.7173 212.86 83.8524 213.09 84.0396L213.74 84.5627L218.505 88.4179L225.399 94.0127L227.266 95.5421L227.752 95.9383C227.849 96.0176 227.9 96.0691 227.9 96.0691Z" fill="white"/>
<path d="M229.004 156.906H47.044C46.2064 156.905 45.4034 156.568 44.8112 155.968C44.2189 155.369 43.8857 154.556 43.8847 153.708V45.4314C43.8857 44.5837 44.2189 43.771 44.8112 43.1716C45.4034 42.5722 46.2064 42.2349 47.044 42.2339H229.004C229.842 42.2349 230.645 42.5722 231.237 43.1716C231.829 43.771 232.163 44.5837 232.164 45.4314V153.736C232.155 154.579 231.819 155.384 231.228 155.978C230.636 156.571 229.837 156.905 229.004 156.906ZM47.044 42.6301C46.3102 42.6312 45.6068 42.9266 45.088 43.4518C44.5691 43.9769 44.2772 44.6888 44.2762 45.4314V153.736C44.2844 154.474 44.5795 155.179 45.0976 155.698C45.6157 156.217 46.315 156.509 47.044 156.51H229.004C229.738 156.509 230.441 156.213 230.96 155.688C231.479 155.163 231.771 154.451 231.772 153.708V45.4314C231.771 44.6888 231.479 43.9769 230.96 43.4518C230.441 42.9266 229.738 42.6312 229.004 42.6301H47.044Z" fill="#263238"/>
<path d="M244.883 163.352C244.883 163.412 196.632 163.455 137.122 163.455C77.6115 163.455 29.3487 163.412 29.3487 163.352C29.3487 163.293 77.5919 163.245 137.122 163.245C196.652 163.245 244.883 163.297 244.883 163.352Z" fill="#263238"/>
</svg>
